<svg width="70" height="63" viewBox="0 0 70 63" fill="none" xmlns="http://www.w3.org/2000/svg">
<g clip-path="url(#clip0)">
<path d="M21.3326 40.7303C22.6971 40.7303 23.8033 39.7441 23.8033 38.5275C23.8033 37.3109 22.6971 36.3247 21.3326 36.3247C19.968 36.3247 18.8618 37.3109 18.8618 38.5275C18.8618 39.7441 19.968 40.7303 21.3326 40.7303Z" fill="white"/>
<path d="M48.6675 40.7303C50.0321 40.7303 51.1382 39.7441 51.1382 38.5275C51.1382 37.3109 50.0321 36.3247 48.6675 36.3247C47.303 36.3247 46.1968 37.3109 46.1968 38.5275C46.1968 39.7441 47.303 40.7303 48.6675 40.7303Z" fill="white"/>
<path d="M21.3325 31.4629C19.983 31.4629 18.7141 31.9314 17.7598 32.7823C17.2441 33.2419 17.2441 33.987 17.7598 34.4467C18.2754 34.9064 19.1111 34.9063 19.6264 34.4467C20.0822 34.0404 20.688 33.8166 21.3325 33.8166C21.977 33.8166 22.5829 34.0404 23.0387 34.4467C23.2964 34.6765 23.6341 34.7915 23.9721 34.7914C24.3098 34.7914 24.6477 34.6765 24.9055 34.4467C25.4211 33.9871 25.4211 33.242 24.9055 32.7823C23.9509 31.9316 22.6821 31.4629 21.3325 31.4629Z" fill="white"/>
<path d="M45.0945 32.7825C44.5789 33.2421 44.5789 33.9872 45.0945 34.4469C45.6099 34.9066 46.4457 34.9065 46.9611 34.4469C47.9018 33.6081 49.4327 33.6083 50.3734 34.4469C50.6311 34.6767 50.9689 34.7916 51.3068 34.7916C51.6447 34.7916 51.9825 34.6767 52.2402 34.4469C52.7558 33.9874 52.7558 33.2422 52.2402 32.7825C50.2704 31.0263 47.0648 31.0262 45.0945 32.7825Z" fill="white"/>
<path d="M37.5422 47.8803C36.8631 48.4857 35.9604 48.8192 34.9999 48.8192C34.0396 48.8192 33.1367 48.4858 32.4577 47.8803C31.9423 47.4208 31.1065 47.4208 30.5911 47.8803C30.0754 48.3399 30.0754 49.085 30.5911 49.5447C31.7687 50.5948 33.3345 51.1729 35.0001 51.1729C36.6656 51.1729 38.2315 50.5946 39.4091 49.5447C39.9247 49.0851 39.9247 48.34 39.4091 47.8803C38.8934 47.4208 38.0577 47.4208 37.5422 47.8803Z" fill="white"/>
<path d="M66.146 37.392C66.146 34.1952 63.5538 31.5296 60.1455 30.9737V11.2855C60.1455 8.73142 58.7204 6.36355 56.3333 4.95144C54.0913 3.62525 51.3077 3.32426 48.791 4.11498L40.5036 1.60705C34.1355 -0.320228 27.4324 -0.517943 21.1189 1.03509C12.8537 3.06829 8.11516 7.36772 7.38371 13.4792C6.73641 14.2404 6.2221 15.0952 5.87263 16.0176L5.22978 17.7139C4.88477 18.6247 5.26509 19.5818 6.17656 20.0955C7.0877 20.6092 8.22076 20.5053 8.99578 19.8367C9.26044 19.6083 9.54985 19.4158 9.85444 19.2549V30.9738C6.44617 31.5297 3.854 34.1952 3.854 37.3922C3.854 40.717 6.65754 43.4672 10.2673 43.8671C11.1738 48.3298 13.5559 52.4464 17.1983 55.7406C21.9538 60.0415 28.2757 62.4099 35 62.4099C35.0008 62.4099 35.0016 62.4099 35.0025 62.4099C41.7182 62.4094 48.0318 60.0774 52.7805 55.8437C56.4899 52.5365 58.8976 48.378 59.7743 43.8624C63.3639 43.4458 66.146 40.7039 66.146 37.392ZM54.8737 6.91286C56.5464 7.90217 57.5055 9.49595 57.5055 11.2855V26.6863C53.4084 26.1186 50.2624 22.9522 50.2624 19.1427L50.1532 6.2029C51.7651 5.8241 53.446 6.0683 54.8737 6.91286ZM8.11731 17.4478L8.37389 16.771C9.04594 14.9976 10.5384 13.5578 12.4684 12.8211C14.3982 12.0843 16.5969 12.1149 18.5002 12.9054C22.4975 14.5652 27.3299 13.6678 30.2514 10.7233L30.5784 10.3936C31.0616 9.90683 31.0104 9.16304 30.4644 8.73245C29.9181 8.30186 29.084 8.34732 28.6011 8.83411L28.274 9.16378C26.1211 11.3336 22.5602 11.9948 19.6148 10.7717C17.032 9.69911 14.0483 9.65748 11.4292 10.6574C11.1908 10.7484 10.959 10.8501 10.7308 10.9565C12.2651 7.30946 15.9786 4.74122 21.8213 3.30396C27.6229 1.87671 33.7897 2.06074 39.6553 3.83576L47.5132 6.21379L47.6161 12.2949C44.1173 16.5362 39.0145 19.4073 33.1995 20.3946C27.2453 21.4054 21.1707 20.3357 16.095 17.3826C13.6147 15.9399 10.4879 16.0016 8.11731 17.4478ZM6.49402 37.392C6.49402 35.4998 7.91452 33.8986 9.85444 33.3892V39.7682C9.85444 40.3192 9.87672 40.8672 9.92011 41.4117C7.94686 40.9214 6.49402 39.3056 6.49402 37.392ZM50.9139 54.179C46.6638 57.9683 41.013 60.0553 35.0023 60.0559C35.0013 60.0559 35.0011 60.0559 35 60.0559C28.9885 60.0559 23.3336 57.9362 19.0783 54.088C14.8327 50.2481 12.4945 45.1625 12.4945 39.768V18.7C13.2421 18.7497 13.9839 18.9654 14.6519 19.3539C20.3025 22.6414 27.0646 23.8322 33.693 22.7068C39.0735 21.7933 43.9071 19.4317 47.6223 15.9489V19.1425C47.6223 24.2518 51.9481 28.4747 57.5053 29.0592V39.9906C57.5055 45.3504 55.1646 50.3893 50.9139 54.179ZM60.0945 41.4078C60.1272 40.938 60.1455 40.4656 60.1455 39.9907V33.3892C62.0854 33.8986 63.5059 35.4998 63.5059 37.392C63.5059 39.3008 62.0605 40.9133 60.0945 41.4078Z" fill="white"/>
</g>
<defs>
<clipPath id="clip0">
<rect width="70" height="62.4096" fill="white"/>
</clipPath>
</defs>
</svg>
