<svg width="70" height="70" viewBox="0 0 70 70" fill="none" xmlns="http://www.w3.org/2000/svg">
<g clip-path="url(#clip0)">
<path d="M43.2795 65.7619C43.1908 65.7619 43.1006 65.7523 43.013 65.7347C42.9254 65.7181 42.8394 65.6909 42.7577 65.6567C42.6739 65.6225 42.5948 65.5803 42.5211 65.5306C42.4458 65.4815 42.3759 65.4244 42.3134 65.3614C42.2504 65.2983 42.1927 65.2289 42.1435 65.1536C42.0944 65.0799 42.0522 65.0003 42.018 64.917C41.9839 64.8348 41.9561 64.7488 41.9401 64.6612C41.9219 64.5736 41.9123 64.4834 41.9123 64.3947C41.9123 64.3061 41.9219 64.2158 41.9401 64.1282C41.9561 64.0406 41.9839 63.9546 42.018 63.8713C42.0522 63.7891 42.0944 63.7095 42.1435 63.6358C42.1927 63.5605 42.2504 63.4911 42.3134 63.4281C42.3759 63.365 42.4458 63.3079 42.5211 63.2588C42.5948 63.2091 42.6739 63.1669 42.7577 63.1327C42.8394 63.0985 42.9254 63.0713 43.013 63.0548C43.1898 63.0195 43.3697 63.0195 43.546 63.0548C43.6341 63.0713 43.7201 63.0985 43.8034 63.1327C43.8856 63.1669 43.9647 63.2091 44.0384 63.2588C44.1137 63.3079 44.1836 63.365 44.2461 63.4281C44.3091 63.4911 44.3668 63.5605 44.416 63.6358C44.4651 63.7095 44.5073 63.7891 44.5415 63.8713C44.5756 63.9546 44.6034 64.0406 44.6194 64.1282C44.6376 64.2158 44.6467 64.3061 44.6467 64.3947C44.6467 64.4834 44.6376 64.5736 44.6194 64.6612C44.6034 64.7488 44.5756 64.8348 44.5415 64.917C44.5073 65.0003 44.4651 65.0799 44.416 65.1536C44.3668 65.2289 44.3091 65.2983 44.2461 65.3614C44.1836 65.4244 44.1137 65.4815 44.0384 65.5306C43.9647 65.5803 43.8856 65.6225 43.8034 65.6567C43.7201 65.6909 43.6341 65.7181 43.546 65.7347C43.4589 65.7523 43.3687 65.7619 43.2795 65.7619Z" fill="white"/>
<path d="M64.0421 44.7903C63.9507 43.2154 63.2388 36.4986 63.1438 35.8646C62.9878 34.8302 62.7203 33.1858 62.3277 31.2269C61.6447 27.8201 60.4633 22.8849 58.7127 18.7251C53.9596 7.43141 47.2 3.95737 42.3422 3.03772C40.5067 1.15677 37.8994 0 34.9647 0C32.0274 0 29.4196 1.15677 27.5846 3.03825C22.7391 3.95576 15.9726 7.4234 11.2163 18.7251C8.91448 24.1955 7.23487 33.4726 6.61964 37.2073C6.61216 37.2532 5.98144 43.1535 5.88691 44.7903C5.75767 47.0286 7.1585 49.0639 9.29313 49.74L16.0831 51.8906C15.9811 52.4268 15.9277 52.9801 15.9277 53.5457V68.6328C15.9277 69.388 16.5398 70 17.2949 70H52.6335C53.3887 70 54.0007 69.388 54.0007 68.6328V53.5457C54.0007 52.9801 53.9478 52.4268 53.8458 51.8906L60.6364 49.74C62.7705 49.0644 64.1708 47.0286 64.0421 44.7903ZM56.1919 19.7858C58.7816 25.9397 60.1915 34.342 60.5701 37.1389C60.3501 37.3296 60.0927 37.4738 59.808 37.564L39.2329 44.1201V42.1761C45.7746 40.48 50.8199 34.9674 51.7165 28.0113C51.7721 27.8629 51.8025 27.7021 51.8025 27.5344V21.2496C51.8025 17.3798 50.4695 14.0067 47.9482 11.4935C47.1082 10.6566 46.1474 9.92386 45.0841 9.30222C45.0301 8.32222 44.8357 7.38495 44.519 6.50749C49.3197 8.42583 53.3187 12.9573 56.1919 19.7858ZM20.8063 25.826C20.8063 25.7928 20.8063 25.7597 20.8069 25.7266C24.3151 25.0409 26.4668 21.711 27.4863 19.6442C31.017 22.0795 40.4784 28.093 48.8049 28.8274C47.4216 35.2804 41.7083 39.9838 34.9647 39.9838C27.1579 39.9838 20.8063 33.6328 20.8063 25.826ZM34.9145 9.54895H34.9941C39.5918 9.54895 43.5049 10.9258 46.0176 13.4305C48.0417 15.4476 49.0681 18.0784 49.0681 21.2496V26.1063C39.6159 25.2919 27.842 16.5446 27.7187 16.4522C27.4794 16.2722 27.191 16.1793 26.8994 16.1793C26.7638 16.1793 26.627 16.1996 26.4946 16.2402C26.0764 16.3694 25.7448 16.692 25.6033 17.1064C25.5851 17.1593 23.9765 21.7677 20.8608 22.8796V21.4173C20.8608 12.6935 28.4316 9.57138 34.9145 9.54895ZM34.9647 2.73438C38.4185 2.73438 41.2527 4.90692 42.1035 7.9409C39.9662 7.20123 37.5651 6.81458 34.9936 6.81458C34.9642 6.81458 34.9343 6.81458 34.9049 6.81458C32.3009 6.82365 29.9184 7.2258 27.818 7.96761C28.6591 4.91867 31.4982 2.73438 34.9647 2.73438ZM13.737 19.7858C16.6103 12.9584 20.6093 8.42636 25.4094 6.50803C25.0874 7.40097 24.8919 8.3564 24.8422 9.35616C20.6242 11.8764 18.1264 16.1227 18.1264 21.4173V24.4593C18.0901 24.9117 18.072 25.3709 18.072 25.8254C18.072 33.6665 23.4414 40.2765 30.696 42.1719V44.1201L10.1188 37.5629C9.85175 37.4786 9.60876 37.3461 9.39781 37.1715C9.95857 33.847 11.5997 24.8636 13.737 19.7858ZM10.1182 47.1333C9.17724 46.8353 8.55987 45.9364 8.61701 44.9479C8.68484 43.7762 8.8066 42.0939 9.0229 40.0757C9.11048 40.1093 9.2002 40.1403 9.29046 40.1691L23.6732 44.7519C20.793 45.1161 18.339 46.8684 17.0044 49.3143L10.1182 47.1333ZM23.4307 67.2656V65.7617H38.2209C38.9761 65.7617 39.5881 65.1497 39.5881 64.3945C39.5881 63.6394 38.9761 63.0273 38.2209 63.0273H23.4307V61.1181C23.4307 58.3154 25.7111 56.0349 28.5139 56.0349C30.4124 56.0349 33.597 56.5177 33.597 59.7509C33.597 60.5061 34.2091 61.1181 34.9642 61.1181C35.7194 61.1181 36.3314 60.5061 36.3314 59.7509C36.3314 56.5177 39.5165 56.0349 41.4151 56.0349C44.2178 56.0349 46.4983 58.3154 46.4983 61.1181V67.2656H23.4307ZM51.2663 67.2656H49.2326V61.1181C49.2326 56.8077 45.7255 53.3006 41.4151 53.3006H41.4146C38.5248 53.3006 36.2908 54.1887 34.9642 55.7567C33.6381 54.1882 31.4042 53.3006 28.5139 53.3006C24.2035 53.3006 20.6963 56.8077 20.6963 61.1181V67.2656H18.6621V53.5457C18.6621 50.1656 21.412 47.4158 24.792 47.4158H32.0632C32.8184 47.4158 33.4304 46.8037 33.4304 46.0486V42.6493C33.9356 42.6947 34.4472 42.7182 34.9642 42.7182C35.4812 42.7182 35.9928 42.6947 36.498 42.6493V46.0486C36.498 46.8037 37.1106 47.4158 37.8652 47.4158H45.1369C48.517 47.4158 51.2663 50.1656 51.2663 53.5452V67.2656ZM59.8102 47.1333L52.924 49.3143C51.5894 46.8678 49.136 45.1161 46.2558 44.7519L60.6358 40.1697C60.7272 40.1408 60.8174 40.1093 60.9061 40.0757C61.1224 42.0928 61.2441 43.7756 61.312 44.9479C61.3691 45.9364 60.7517 46.8353 59.8102 47.1333Z" fill="white"/>
</g>
<defs>
<clipPath id="clip0">
<rect width="70" height="70" fill="white"/>
</clipPath>
</defs>
</svg>
