<svg width="70" height="70" viewBox="0 0 70 70" fill="none" xmlns="http://www.w3.org/2000/svg">
<path d="M39.5058 10.8259C37.9913 10.8259 36.4932 10.984 35.0294 11.298L35.518 9.52438C35.5271 9.49181 35.5357 9.45816 35.5426 9.42505C35.5426 9.42398 35.5431 9.42291 35.5431 9.42131C35.5447 9.41437 35.5463 9.40689 35.5474 9.39941C35.5485 9.39674 35.5485 9.39461 35.549 9.39194C35.5501 9.38606 35.5512 9.38072 35.5522 9.37485C35.5528 9.37057 35.5538 9.3663 35.5544 9.36256C35.5549 9.35829 35.5554 9.35402 35.556 9.34975C35.557 9.34441 35.5581 9.33853 35.5586 9.33319C35.5592 9.33052 35.5592 9.32785 35.5597 9.32518C35.5608 9.3177 35.5618 9.31076 35.5624 9.30382C35.5629 9.30275 35.5629 9.30168 35.5629 9.30061C35.5725 9.21677 35.5746 9.13292 35.5688 9.05014C35.5688 9.04854 35.5688 9.04747 35.5688 9.0464C35.5682 9.03839 35.5677 9.03038 35.5672 9.0229C35.5666 9.0197 35.5661 9.01703 35.5661 9.01436C35.5656 9.00795 35.565 9.00208 35.5645 8.99567C35.564 8.99086 35.5634 8.98659 35.5629 8.98178C35.5624 8.97751 35.5618 8.97324 35.5613 8.96896C35.5602 8.96255 35.5597 8.95668 35.5586 8.95027C35.5581 8.9476 35.5581 8.94493 35.5576 8.94226C35.5565 8.93478 35.5554 8.92784 35.5544 8.92036C35.5538 8.91876 35.5538 8.91663 35.5533 8.91502C35.5517 8.90648 35.5506 8.89793 35.549 8.88939C35.549 8.88939 35.549 8.88885 35.5485 8.88885C35.5303 8.79005 35.5004 8.69232 35.4598 8.59833C35.4593 8.59726 35.4593 8.59673 35.4588 8.59566C35.4556 8.58818 35.4524 8.5807 35.4486 8.57323C35.4481 8.57162 35.447 8.56949 35.4465 8.56789C35.4433 8.56148 35.4406 8.55507 35.4374 8.54919C35.4353 8.54439 35.4331 8.54012 35.431 8.53584C35.4289 8.5321 35.4272 8.52837 35.4256 8.52463C35.4214 8.51662 35.4171 8.50807 35.4128 8.50006C35.3973 8.47069 35.3808 8.44238 35.3637 8.41408C32.1198 3.1456 26.4957 0 20.3156 0C14.1386 0 8.51662 3.1424 5.27222 8.4066C5.24285 8.4536 5.21614 8.50166 5.19265 8.55133C5.19104 8.554 5.18998 8.55667 5.18891 8.55934C5.18624 8.56522 5.18357 8.57056 5.1809 8.57643C5.17876 8.58124 5.17662 8.58658 5.17395 8.59192C5.17289 8.59459 5.17128 8.59779 5.17022 8.601C5.16754 8.60741 5.16487 8.61382 5.1622 8.62022C5.16114 8.62236 5.1606 8.6245 5.15953 8.6261C5.15633 8.63358 5.15366 8.64105 5.15099 8.64853C5.15045 8.64906 5.14992 8.65013 5.14939 8.6512C5.14672 8.65921 5.14351 8.66722 5.14084 8.67523L5.13977 8.67737C5.1371 8.68538 5.13443 8.69339 5.13176 8.7014C5.13123 8.70193 5.13123 8.70247 5.13069 8.703C5.12802 8.71155 5.12535 8.72009 5.12268 8.72864C5.12268 8.72864 5.12268 8.72917 5.12215 8.72917C5.11948 8.73772 5.11734 8.74626 5.11467 8.75481C5.11467 8.75534 5.11414 8.75587 5.11414 8.75641C5.11147 8.76442 5.10933 8.77243 5.1072 8.78098C5.10666 8.78204 5.10666 8.78258 5.10613 8.78365C5.10399 8.79166 5.10186 8.79913 5.10025 8.80714C5.09972 8.80875 5.09919 8.80981 5.09919 8.81142C5.09705 8.81889 5.09545 8.82584 5.09384 8.83331C5.09331 8.83545 5.09278 8.83812 5.09224 8.84026C5.09064 8.84666 5.08957 8.85307 5.08797 8.85948C5.08744 8.86269 5.08637 8.86589 5.08583 8.86909C5.08477 8.87497 5.0837 8.88031 5.08263 8.88618C5.0821 8.89046 5.08103 8.89526 5.08049 8.89954C5.07943 8.90381 5.07889 8.90808 5.07782 8.91235C5.07675 8.91823 5.07622 8.92464 5.07515 8.93051C5.07462 8.93318 5.07408 8.93585 5.07355 8.93852C5.07248 8.94653 5.07141 8.95454 5.07035 8.96202V8.96523C5.04952 9.12117 5.05593 9.28192 5.09171 9.44107V9.44214C5.09384 9.45015 5.09545 9.45869 5.09758 9.46671C5.09812 9.46831 5.09865 9.46938 5.09865 9.47098C5.10079 9.47792 5.10239 9.4854 5.10399 9.49234C5.10506 9.49501 5.10559 9.49768 5.10613 9.50035C5.1072 9.50356 5.10773 9.50623 5.1088 9.5089L10.0825 27.4725C10.1898 27.8602 10.4622 28.1817 10.827 28.3515C11.0107 28.437 11.2088 28.4797 11.4069 28.4797C11.6019 28.4797 11.7973 28.438 11.9789 28.3553L14.8618 27.0345L15.932 28.9619L12.6887 52.3125C12.2481 55.4865 12.9472 58.726 14.6572 61.4359L19.6581 69.3591C19.9097 69.7581 20.3487 70 20.8202 70C21.2918 70 21.7303 69.7581 21.9818 69.3591L26.8514 61.6436C28.6559 58.7853 29.3283 55.377 28.7457 52.0471L28.4258 50.2185C31.7417 52.2437 35.5736 53.3337 39.5058 53.3337C51.2252 53.3337 60.7597 43.7991 60.7597 32.0798C60.7597 20.3604 51.2252 10.8259 39.5058 10.8259ZM25.8083 24.0315C25.7918 24.023 25.7752 24.015 25.7581 24.007L22.6846 22.5992L31.4923 13.7915L28.3505 25.1963L25.8083 24.0315ZM20.3156 2.74773C25.1765 2.74773 29.6306 5.05272 32.4323 8.96576L26.9811 14.4164L20.3156 21.0825L8.19886 8.96576C11.0005 5.05272 15.4546 2.74773 20.3156 2.74773ZM9.14841 13.8011L17.9465 22.5992L14.873 24.007C14.8703 24.008 14.8676 24.0096 14.865 24.0107L12.3004 25.1851L9.14841 13.8011ZM24.5277 60.1771L22.1426 63.9571V51.9654C22.1426 51.207 21.5273 50.5918 20.7684 50.5918C20.0095 50.5918 19.3943 51.207 19.3943 51.9654V63.7932L16.9809 59.9693C15.6169 57.8075 15.0588 55.2226 15.4108 52.6907L18.7166 28.885C18.7577 28.5897 18.7016 28.289 18.5569 28.0289L17.367 25.8868L17.8744 25.6545L20.3156 24.5362L23.2603 25.8863L22.0651 28.0263C21.9113 28.3018 21.8574 28.6217 21.9113 28.9326L26.0391 52.5203C26.5042 55.1772 25.9675 57.8961 24.5277 60.1771ZM40.88 50.5352V48C40.88 47.2411 40.2647 46.6259 39.5058 46.6259C38.7475 46.6259 38.1323 47.2411 38.1323 48V50.5347C34.3324 50.2522 30.7035 48.8027 27.7534 46.376L24.7023 28.94L25.7661 27.0351L28.6736 28.3675C28.8551 28.4509 29.0506 28.4925 29.2461 28.4925C29.4442 28.4925 29.6429 28.4492 29.8266 28.3638C30.1919 28.1934 30.4637 27.8714 30.5705 27.4831L34.1893 14.348C35.471 13.9645 36.7907 13.7221 38.1323 13.6238V15.6895C38.1323 16.4479 38.7475 17.0631 39.5058 17.0631C40.2647 17.0631 40.88 16.4479 40.88 15.6895V13.6238C49.913 14.2903 57.1639 21.4691 57.9426 30.4707H55.6611C54.9027 30.4707 54.2875 31.0859 54.2875 31.8443C54.2875 32.6031 54.9027 33.2184 55.6611 33.2184H57.9773C57.4149 42.4394 50.0695 49.8575 40.88 50.5352Z" fill="white"/>
<path d="M43.4354 33.6141C43.6218 33.1382 43.7244 32.6207 43.7244 32.0797C43.7244 30.2345 42.5334 28.6623 40.88 28.0908V21.9454C40.88 21.1865 40.2647 20.5713 39.5058 20.5713C38.7475 20.5713 38.1322 21.1865 38.1322 21.9454V28.0908C36.4783 28.6623 35.2879 30.2345 35.2879 32.0797C35.2879 34.4055 37.18 36.2977 39.5058 36.2977C40.2872 36.2977 41.0199 36.0846 41.6479 35.7124L49.2487 43.3131C49.5168 43.5812 49.8687 43.7158 50.2201 43.7158C50.5715 43.7158 50.9235 43.5812 51.1916 43.3131C51.7283 42.7763 51.7283 41.9064 51.1916 41.3702L43.4354 33.6141ZM38.0356 32.0797C38.0356 31.269 38.6951 30.6089 39.5058 30.6089C40.3165 30.6089 40.9766 31.269 40.9766 32.0797C40.9766 32.8904 40.3165 33.55 39.5058 33.55C38.6951 33.55 38.0356 32.8904 38.0356 32.0797Z" fill="white"/>
<path d="M22.0315 45.9889C21.7479 45.285 20.9473 44.9443 20.2435 45.2278C19.5401 45.5114 19.1988 46.312 19.483 47.0159L19.5054 47.0714C19.7211 47.6071 20.236 47.9323 20.7802 47.9323C20.9511 47.9323 21.1247 47.9003 21.2929 47.8324C21.9968 47.5489 22.3375 46.7483 22.0539 46.0444L22.0315 45.9889Z" fill="white"/>
<path d="M64.9633 20.2785C63.6858 17.4122 61.9031 14.8241 59.6649 12.5859C57.8262 10.7466 55.7375 9.20637 53.456 8.00688C52.7847 7.6544 51.9537 7.91235 51.6006 8.58366C51.2476 9.2555 51.5056 10.0865 52.1774 10.4395C54.2133 11.5098 56.0787 12.8855 57.722 14.5288C59.7215 16.5283 61.313 18.8392 62.4532 21.3968C62.6813 21.9084 63.1833 22.2117 63.7088 22.2117C63.8957 22.2117 64.0858 22.1738 64.2674 22.0926C64.9606 21.7834 65.272 20.9711 64.9633 20.2785Z" fill="white"/>
<path d="M46.4198 7.98591C46.6681 8.44627 47.1413 8.70796 47.6305 8.70796C47.8505 8.70796 48.0737 8.65509 48.2809 8.54347C48.9491 8.18298 49.1985 7.34985 48.8385 6.68174L48.8236 6.65451C48.4636 5.9864 47.6299 5.73646 46.9624 6.09748C46.2942 6.45744 46.0448 7.29057 46.4048 7.95868L46.4198 7.98591Z" fill="white"/>
</svg>
