<svg width="30" height="30" viewBox="0 0 30 30" fill="none" xmlns="http://www.w3.org/2000/svg">
<g clip-path="url(#clip0)">
<path d="M15.5067 17.2925C15.4524 17.1509 15.388 17.0127 15.317 16.8784C15.2711 16.7917 15.2179 16.7094 15.1653 16.6255C15.1278 16.5656 15.0903 16.5063 15.05 16.4481C14.9896 16.3613 14.9264 16.2779 14.8592 16.1957C14.8206 16.1487 14.7792 16.1039 14.7389 16.0586C14.6124 15.9175 14.4775 15.7866 14.3326 15.664C14.2805 15.6198 14.2307 15.5728 14.1765 15.5314C14.1082 15.4793 14.0377 15.434 13.9666 15.3864C13.8832 15.3305 13.7981 15.2779 13.7114 15.2292C13.6521 15.1962 13.5933 15.1637 13.5323 15.134C13.3773 15.0585 13.22 14.9908 13.0583 14.941C12.9262 14.9001 12.7953 14.8721 12.6649 14.8503C12.638 14.8458 12.6112 14.8419 12.5843 14.8386C12.3179 14.8022 12.0577 14.805 11.8109 14.847C11.8053 14.8481 11.7992 14.8492 11.7936 14.8503C11.4684 14.9085 11.1668 15.03 10.9088 15.2202C10.883 15.2393 10.8651 15.2656 10.8399 15.2851C10.7706 15.3411 10.7073 15.4043 10.6458 15.4698C10.6027 15.5157 10.5557 15.5571 10.5176 15.6069C10.4365 15.711 10.3643 15.8235 10.3021 15.9461C10.301 15.9483 10.3016 15.9505 10.3005 15.9528C10.1387 16.2746 10.0492 16.6445 10.0492 17.0519C10.0492 18.5635 11.2255 20.1125 12.727 20.5776C13.0107 20.6654 13.2934 20.7085 13.5653 20.7085C14.0533 20.7085 14.5083 20.5692 14.8765 20.2977C15.4306 19.8892 15.7361 19.2384 15.7361 18.4661C15.7361 18.0704 15.6522 17.6736 15.5061 17.2931C15.5067 17.2931 15.5067 17.2931 15.5067 17.2925ZM11.4617 16.2315C11.5149 16.1755 11.5759 16.1291 11.6413 16.0888C11.6788 16.0653 11.7197 16.0474 11.7611 16.0295C11.8182 16.0043 11.8769 15.9813 11.9402 15.9662C11.9866 15.9556 12.0353 15.9511 12.0846 15.9461C12.1573 15.9382 12.2301 15.931 12.3079 15.9354C12.3286 15.9366 12.3498 15.9382 12.3711 15.941C12.4858 15.9522 12.6045 15.9729 12.7276 16.011C12.8434 16.0468 12.9559 16.0961 13.0667 16.1509C13.0897 16.1621 13.112 16.1738 13.1344 16.1856C13.3594 16.3065 13.5709 16.4626 13.759 16.6456C13.7685 16.6551 13.7786 16.6641 13.7881 16.6741C13.97 16.8555 14.1278 17.0614 14.257 17.2797C14.2761 17.3127 14.2951 17.3451 14.313 17.3787C14.3248 17.4005 14.3331 17.4235 14.3449 17.4453C14.0662 17.7565 13.5967 17.8482 13.0583 17.6832C12.3918 17.4761 11.7796 16.9305 11.4376 16.255C11.4455 16.246 11.4539 16.2393 11.4617 16.2315ZM14.2123 19.3979C13.9241 19.6105 13.5144 19.6491 13.0583 19.5092C12.3442 19.2876 11.7152 18.6726 11.3945 17.9775C11.7924 18.329 12.2474 18.6026 12.727 18.7515C13.0102 18.8388 13.29 18.8813 13.5581 18.8813C13.9369 18.8813 14.2912 18.7929 14.6018 18.6323C14.5676 18.9625 14.4361 19.2333 14.2123 19.3979Z" fill="#FFD858"/>
<path d="M23.2 18.935C22.5923 18.747 21.9907 18.8281 21.5463 19.1561C21.1205 19.47 20.8765 19.9865 20.8765 20.5736C20.8765 21.7012 21.7517 22.8552 22.8693 23.201C23.0848 23.2676 23.2991 23.3007 23.5067 23.3007C23.8839 23.3007 24.2365 23.1921 24.523 22.9806C24.9489 22.6666 25.1929 22.1506 25.1929 21.5636C25.1923 20.4354 24.3171 19.2803 23.2 18.935ZM23.8582 22.0796C23.7003 22.196 23.4659 22.215 23.1995 22.1322C22.5464 21.9301 21.9952 21.216 21.9952 20.5736C21.9952 20.4102 22.0321 20.188 22.2101 20.0565C22.3035 19.9882 22.4227 19.953 22.5598 19.953C22.6555 19.953 22.7591 19.9698 22.8687 20.0039C23.5218 20.2059 24.0731 20.92 24.0731 21.563C24.0731 21.7264 24.0361 21.9486 23.8582 22.0796Z" fill="#FFD858"/>
<path d="M7.53036 17.8157C6.92317 17.6277 6.32101 17.7088 5.87666 18.0368C5.45079 18.3507 5.20679 18.8673 5.20679 19.4543C5.20679 20.582 6.08205 21.7359 7.19962 22.0818C7.41508 22.1484 7.62942 22.1814 7.83704 22.1814C8.21423 22.1814 8.5668 22.0728 8.85333 21.8613C9.2792 21.5473 9.5232 21.0314 9.5232 20.4443C9.52264 19.3161 8.64738 18.161 7.53036 17.8157ZM8.18849 20.9603C8.03067 21.0767 7.79619 21.0952 7.5298 21.0129C6.87672 20.8109 6.32548 20.0968 6.32548 19.4543C6.32548 19.2909 6.36242 19.0687 6.54038 18.9372C6.63384 18.869 6.75304 18.8337 6.89015 18.8337C6.98585 18.8337 7.08938 18.8505 7.19906 18.8846C7.85215 19.0867 8.40338 19.8007 8.40338 20.4438C8.40338 20.6072 8.36645 20.8293 8.18849 20.9603Z" fill="#FFD858"/>
<path d="M19.2826 22.8166C18.8293 22.6772 18.3738 22.7382 18.0335 22.9895C17.7062 23.2313 17.5187 23.6241 17.5187 24.0685C17.5187 24.8827 18.1483 25.7149 18.9519 25.9639C19.1108 26.0132 19.2698 26.0378 19.4242 26.0378C19.7107 26.0378 19.9799 25.9544 20.201 25.7916C20.5284 25.5498 20.7164 25.1564 20.7164 24.7121C20.7153 23.8972 20.0857 23.0651 19.2826 22.8166ZM19.5361 24.8895C19.4869 24.9258 19.3901 24.9275 19.2826 24.8945C18.9446 24.7898 18.6379 24.3959 18.6379 24.0679C18.6379 24.0276 18.6441 23.9297 18.6978 23.8905C18.723 23.8715 18.7616 23.862 18.8086 23.862C18.8512 23.862 18.8998 23.8698 18.9513 23.8855C19.2893 23.9901 19.596 24.3835 19.596 24.7115C19.596 24.7518 19.5899 24.8492 19.5361 24.8895Z" fill="#FFD858"/>
<path d="M18.5523 19.31C18.7112 19.3592 18.8701 19.3839 19.0252 19.3839C19.3111 19.3839 19.5809 19.3005 19.8019 19.1376C20.1293 18.8959 20.3168 18.503 20.3168 18.0587C20.3168 17.2444 19.6872 16.4122 18.8836 16.1632C18.4286 16.0227 17.9742 16.0854 17.635 16.3361C17.3077 16.5779 17.1196 16.9713 17.1196 17.4157C17.1191 18.2288 17.7487 19.0615 18.5523 19.31ZM18.2988 17.2371C18.3245 17.2181 18.3631 17.2086 18.4096 17.2086C18.4521 17.2086 18.5008 17.2164 18.5523 17.2321C18.8903 17.3367 19.197 17.7307 19.197 18.0587C19.197 18.099 19.1908 18.1969 19.1371 18.2361C19.089 18.2724 18.991 18.2736 18.8836 18.2411C18.5456 18.1365 18.2389 17.743 18.2389 17.4151C18.2383 17.3748 18.2445 17.2769 18.2988 17.2371Z" fill="#FFD858"/>
<path d="M6.32559 12.1814C6.32559 11.3101 5.65123 10.4186 4.78997 10.1511C4.30701 10.0006 3.82461 10.0683 3.46644 10.333C3.12115 10.5876 2.92249 11.0034 2.92249 11.4741C2.92249 12.346 3.5974 13.2374 4.45867 13.5038C4.62823 13.5564 4.79724 13.5822 4.96121 13.5822C5.26397 13.5822 5.54938 13.4943 5.78219 13.3225C6.12804 13.0679 6.32559 12.6521 6.32559 12.1814ZM5.11791 12.4209C5.04907 12.4719 4.92484 12.4775 4.78997 12.4349C4.39151 12.3113 4.04174 11.863 4.04174 11.4741C4.04174 11.4086 4.05349 11.2905 4.13016 11.2334C4.16822 11.2054 4.2225 11.1914 4.2863 11.1914C4.33835 11.1914 4.39655 11.201 4.45867 11.22C4.85712 11.3437 5.20633 11.7925 5.20633 12.1814C5.20633 12.2469 5.19514 12.365 5.11791 12.4209Z" fill="#FFD858"/>
<path d="M27.6076 19.7941C27.6166 19.7554 27.6334 19.7224 27.6468 19.6866C27.6597 19.6519 27.6686 19.615 27.6849 19.5836C27.686 19.5814 27.6882 19.5797 27.6893 19.5775C27.7201 19.5198 27.7582 19.4684 27.8013 19.4219C27.8578 19.3609 27.9255 19.3128 28.0016 19.2753C28.0167 19.2674 28.0335 19.2619 28.0492 19.2551C28.1219 19.2249 28.2008 19.2042 28.2865 19.1947C28.2982 19.1936 28.3088 19.1902 28.3212 19.1891C28.3928 19.1829 28.4683 19.1869 28.5456 19.1958C28.5545 19.1969 28.5629 19.1958 28.5719 19.1969H28.5724C28.5786 19.1975 28.5864 19.2008 28.5931 19.202C28.6625 19.2132 28.7314 19.2299 28.8075 19.2546C28.8522 19.2691 28.9015 19.2904 28.9502 19.3105C28.9798 19.3228 29.0101 19.3329 29.0397 19.3458C29.0716 19.3603 29.1046 19.3682 29.1382 19.376C29.15 19.3788 29.1612 19.3844 29.1729 19.3866C29.2138 19.3939 29.2546 19.395 29.2955 19.3934C29.3005 19.3934 29.3055 19.3945 29.3106 19.3939C29.3542 19.3911 29.3973 19.3822 29.4393 19.3687C29.4415 19.3682 29.4438 19.3682 29.4466 19.3676C29.474 19.3587 29.4992 19.3436 29.5249 19.3301C29.5411 19.3217 29.5585 19.3167 29.5736 19.3066C29.6878 19.2333 29.7672 19.1214 29.8053 18.9955C29.8204 18.944 29.8305 18.8914 29.8305 18.8365V17.5863C29.8305 16.382 29.2647 15.2236 28.3161 14.4821L18.5926 5.28401C18.3872 5.08982 18.0699 5.07863 17.8527 5.25827C17.6776 5.40265 17.4185 5.43231 17.1213 5.33997C16.4263 5.12452 15.8392 4.36398 15.8392 3.679C15.8392 3.53741 15.8666 3.41149 15.9203 3.30516C16.0317 3.08411 15.9847 2.81661 15.8056 2.64648L14.1379 1.06945C14.1234 1.05602 14.1083 1.04315 14.0926 1.03139C12.7903 0.0386132 11.1926 -0.271981 10 0.250712L1.72313 4.24366C0.78184 4.65051 0.172964 5.60412 0.170726 6.68028L0.170166 6.68252V6.68756V15.4995C0.170166 15.6657 0.244037 15.8229 0.371632 15.9298C0.499228 16.0356 0.665997 16.0792 0.830528 16.0501C1.01688 16.0149 1.21555 16.03 1.4187 16.0932C2.2587 16.3535 2.96831 17.2735 2.96831 18.1034C2.96831 18.4235 2.85806 18.6815 2.65771 18.8293C2.43386 18.9943 2.11208 19.0234 1.74944 18.911C1.52726 18.8421 1.30173 18.7168 1.08068 18.5388C0.912233 18.4045 0.682226 18.3765 0.487475 18.4705C0.293284 18.5634 0.170166 18.7599 0.170166 18.9748V20.1852C0.170166 21.389 0.985545 22.4338 2.1311 22.7187L26.5779 29.92C26.7906 29.9737 27.0055 29.9994 27.2187 29.9994C27.7945 29.9994 28.357 29.8086 28.8243 29.4437C29.4645 28.944 29.831 28.1924 29.831 27.3804V22.7131C29.831 22.5754 29.7812 22.4484 29.6973 22.3504C29.6133 22.2519 29.4958 22.182 29.3598 22.1602C29.3481 22.1585 29.3363 22.1535 29.3246 22.1512C28.8287 22.0583 28.3385 21.7085 28.0038 21.2524C27.8438 21.0336 27.7257 20.7908 27.6535 20.5412C27.6334 20.4706 27.611 20.4007 27.5992 20.3296C27.583 20.2294 27.5763 20.1321 27.578 20.0409C27.5791 19.9927 27.588 19.9496 27.5936 19.9049C27.5981 19.8679 27.5992 19.8288 27.6076 19.7941ZM2.18819 5.26107L10.4673 1.267C11.2682 0.91723 12.4132 1.16738 13.3908 1.9033L14.7731 3.21059C14.7379 3.36057 14.7205 3.5167 14.7205 3.679C14.7205 4.8503 15.6299 6.04902 16.7911 6.40886C17.2618 6.55493 17.7279 6.54261 18.1253 6.382L27.0323 14.8083L17.4045 11.9408C17.1588 10.9877 16.3809 10.1181 15.4228 9.82204C14.7955 9.62785 14.1732 9.71123 13.7121 10.0498C13.4854 10.2166 13.3119 10.4343 13.195 10.6878L1.919 7.33169C1.57259 7.26509 1.37113 7.02669 1.32132 6.62208C1.31796 6.5969 1.30565 6.57395 1.29838 6.54933C1.34371 5.97795 1.67333 5.4838 2.18819 5.26107ZM16.3736 12.5519C16.3736 12.7293 16.3328 12.9716 16.1369 13.1155C15.9646 13.243 15.7116 13.2638 15.4228 13.1748C15.3361 13.1479 15.2505 13.1127 15.1682 13.0696C14.6729 12.8133 14.2722 12.2945 14.1676 11.7746C14.1502 11.689 14.1413 11.6033 14.1413 11.5188C14.1435 11.5065 14.1508 11.4455 14.1519 11.4338C14.153 11.4203 14.148 11.408 14.1486 11.3952C14.1659 11.239 14.2224 11.0644 14.3775 10.9502C14.4799 10.8747 14.6108 10.8366 14.7608 10.8366C14.8638 10.8366 14.9757 10.8546 15.0927 10.8909C15.7429 11.0924 16.2914 11.7695 16.3608 12.417C16.3613 12.4221 16.3602 12.4265 16.3602 12.4316L16.3736 12.5519ZM28.7107 27.3809C28.7107 27.8454 28.5008 28.2763 28.1342 28.5618C27.7677 28.8488 27.3004 28.9468 26.8706 28.841L2.42435 21.6397C1.75615 21.4724 1.28942 20.8747 1.28942 20.1852V19.9362C1.33251 19.9519 1.37561 19.967 1.4187 19.9799C2.11823 20.197 2.81105 20.1052 3.32143 19.7297C3.81503 19.3659 4.08701 18.7878 4.08701 18.1034C4.08701 16.7827 3.06009 15.4301 1.74944 15.0243C1.5961 14.9768 1.44164 14.9438 1.28886 14.927V8.30712C1.40359 8.35637 1.52559 8.39331 1.65318 8.41737L13.0394 11.8093C13.0427 11.8361 13.0517 11.8624 13.0562 11.8893C13.0657 11.9481 13.0797 12.0063 13.0931 12.065C13.1116 12.1456 13.1328 12.2245 13.1591 12.304C13.1787 12.3639 13.2011 12.4221 13.2252 12.4803C13.256 12.5558 13.2895 12.6303 13.327 12.7036C13.3561 12.7618 13.3869 12.8183 13.4199 12.8743C13.4619 12.9453 13.5067 13.013 13.5542 13.0808C13.5917 13.1345 13.6292 13.1876 13.6701 13.2397C13.7221 13.3052 13.7781 13.3662 13.8352 13.4272C13.8794 13.4747 13.9225 13.5229 13.9695 13.5671C14.0322 13.627 14.0993 13.6807 14.167 13.735C14.2146 13.7736 14.2605 13.8139 14.3103 13.8497C14.3881 13.9051 14.4704 13.9521 14.5532 13.9991C14.5979 14.0248 14.6405 14.0545 14.6869 14.078C14.8179 14.144 14.9528 14.2006 15.0921 14.2437C15.2326 14.2873 15.3725 14.3119 15.5107 14.3276C15.5482 14.3321 15.5846 14.3338 15.6215 14.3366C15.6646 14.3394 15.7088 14.3466 15.7519 14.3466C15.8286 14.3466 15.903 14.3388 15.9774 14.3304C15.9914 14.3287 16.006 14.3293 16.02 14.327C16.1481 14.3091 16.2707 14.2756 16.3888 14.2325C16.4162 14.2224 16.443 14.2112 16.4699 14.1995C16.5869 14.1496 16.6999 14.092 16.8023 14.0165C16.9014 13.9431 16.987 13.8575 17.0653 13.7663C17.0861 13.7428 17.1051 13.7182 17.1247 13.6935C17.1924 13.6057 17.2534 13.5122 17.3026 13.4109C17.3071 13.402 17.3127 13.3947 17.3172 13.3858C17.358 13.2984 17.3927 13.2078 17.4196 13.1121L27.527 16.1207C28.2137 16.2678 28.7118 16.8834 28.7118 17.5858V18.0866C28.5389 18.0637 28.3715 18.0609 28.2098 18.0749C28.071 18.0872 27.9384 18.1146 27.8113 18.1521C27.7671 18.165 27.7251 18.1834 27.6826 18.1997C27.5942 18.2327 27.5086 18.2707 27.4269 18.3166C27.3871 18.339 27.3485 18.362 27.3105 18.3871C27.2248 18.4442 27.1459 18.5086 27.0704 18.5797C27.0514 18.5976 27.0284 18.6093 27.0099 18.6283C27.0038 18.6345 27.0004 18.6429 26.9943 18.6496C26.9842 18.6602 26.9725 18.6675 26.9624 18.6787C26.9618 18.6793 26.9618 18.6793 26.9613 18.6798C26.9081 18.7386 26.87 18.8113 26.8241 18.8774C26.7872 18.9311 26.7441 18.9804 26.7128 19.038C26.7072 19.0481 26.6994 19.0553 26.6943 19.0649C26.649 19.1516 26.6221 19.2473 26.5897 19.3408C26.5734 19.3883 26.5494 19.432 26.5365 19.4812C26.5035 19.6043 26.4884 19.7359 26.4772 19.8685C26.4738 19.906 26.4637 19.9407 26.4621 19.9787C26.4621 19.9849 26.4598 19.9905 26.4598 19.9966C26.4559 20.1405 26.4699 20.291 26.4912 20.4427C26.4945 20.4656 26.4917 20.4869 26.4951 20.5098C26.5214 20.6693 26.5634 20.826 26.6154 20.9805C26.6193 20.9917 26.6199 21.0029 26.6238 21.0135C26.6423 21.0672 26.6669 21.1226 26.7089 21.2133C26.7374 21.2804 26.7648 21.3476 26.7978 21.4131C26.8096 21.4382 26.8191 21.464 26.8325 21.4892C26.8644 21.549 26.9025 21.605 26.9389 21.6615C26.9708 21.7136 27.0027 21.7651 27.0368 21.8154L27.0362 21.816C27.0586 21.8535 27.0821 21.891 27.1051 21.9212C27.1963 22.046 27.2976 22.163 27.3832 22.2525C27.395 22.2665 27.4196 22.2962 27.433 22.3096C27.4716 22.3493 27.5136 22.3829 27.5533 22.4204C27.5718 22.4377 27.5908 22.4551 27.6099 22.4724C27.7033 22.5569 27.7996 22.6347 27.8992 22.7075C27.9171 22.7204 27.9345 22.7338 27.9524 22.7467C28.057 22.82 28.1645 22.886 28.2741 22.9453C28.2909 22.9543 28.3066 22.9649 28.3234 22.9733C28.451 23.0393 28.5808 23.0987 28.7129 23.1451V27.3809H28.7107Z" fill="#FFD858"/>
</g>
<defs>
<clipPath id="clip0">
<rect width="30" height="30" fill="white"/>
</clipPath>
</defs>
</svg>
