<svg width="30" height="30" viewBox="0 0 30 30" fill="none" xmlns="http://www.w3.org/2000/svg">
<g clip-path="url(#clip0)">
<path d="M21.5299 18.6185L17.5757 18.0081C17.4602 17.9906 17.3418 18.0136 17.2418 18.0741C15.8591 18.9049 14.141 18.9049 12.7583 18.0741C12.6578 18.0136 12.5403 17.9901 12.4243 18.0081L8.47019 18.6185C6.75058 18.8819 5.50183 20.3371 5.50183 22.0767V30H6.50162V22.0767C6.50162 20.834 7.39341 19.7952 8.62218 19.6068L12.4029 19.0234C14.0215 19.9232 15.9796 19.9222 17.5973 19.0234L21.378 19.6068C22.6062 19.7952 23.498 20.834 23.498 22.0767V30H24.4978H24.4983V22.0767C24.4982 20.3371 23.2495 18.8819 21.5299 18.6185Z" fill="#FFD858"/>
<path d="M18.9988 0.00650391C18.182 0.00650391 17.4556 0.40043 16.9993 1.00781C16.5429 0.40043 15.8165 0.00650391 14.9997 0.00650391C14.1844 0.00650391 13.4595 0.398906 13.0026 1.00477C12.5482 0.397441 11.8244 0.00251953 11.009 0C11.0061 0 11.0035 0 11.0005 0C9.62582 0 8.50556 1.11574 8.50111 2.49094C8.49812 3.50074 9.098 4.39705 10.0008 4.79045V9.50443C10.0008 9.78035 10.2247 10.0043 10.5006 10.0043H19.4987C19.7751 10.0043 19.9985 9.78035 19.9985 9.50391V4.78998C20.8949 4.39904 21.4947 3.50924 21.4982 2.50746C21.4982 2.50693 21.4982 2.50646 21.4982 2.50594C21.4983 1.12775 20.377 0.00650391 18.9988 0.00650391ZM19.3737 3.95162C19.1533 4.00863 18.9988 4.20756 18.9988 4.43549V9.00451H11.0005V4.43502C11.0005 4.20709 10.8461 4.00811 10.6256 3.95115C9.96127 3.77918 9.49884 3.18029 9.50084 2.49398C9.50336 1.66863 10.1757 0.999316 11.0005 0.999316C11.002 0.999316 11.004 0.999316 11.0055 0.999316C11.8303 1.0023 12.4997 1.67367 12.5001 2.49797C12.5001 2.50049 12.5001 2.50348 12.5001 2.50594C12.5001 2.78186 12.7236 3.00533 12.9995 3.0058H13.0001C13.2755 3.0058 13.4989 2.78285 13.4999 2.5074C13.4999 2.50688 13.4999 2.50641 13.4999 2.50588C13.4999 2.50389 13.4999 2.50236 13.4999 2.5009C13.5024 1.67607 14.1743 1.00623 14.9996 1.00623C15.8264 1.00623 16.4992 1.67906 16.4992 2.50588C16.4992 2.7818 16.7227 3.00574 16.9991 3.00574C17.2755 3.00574 17.4989 2.7818 17.4989 2.50588C17.4989 1.67906 18.1718 1.00623 18.9986 1.00623C19.8249 1.00623 20.4972 1.67859 20.4982 2.50488C20.496 3.18633 20.0336 3.78117 19.3737 3.95162Z" fill="#FFD858"/>
<path d="M19.4989 9.00458H10.5008C10.2249 9.00458 10.001 9.22852 10.001 9.50444V12.5038C10.001 15.2607 12.2435 17.5027 14.9999 17.5027C17.7563 17.5027 19.9988 15.2602 19.9988 12.5038V9.50444C19.9988 9.22852 19.7754 9.00458 19.4989 9.00458ZM18.999 12.5038C18.999 14.7093 17.2049 16.5029 14.9999 16.5029C12.7949 16.5029 11.0008 14.7088 11.0008 12.5038V10.0044H18.999V12.5038Z" fill="#FFD858"/>
<path d="M13.0021 16.0015H12.0023V18.501H13.0021V16.0015Z" fill="#FFD858"/>
<path d="M18.0011 16.0015H17.0013V18.501H18.0011V16.0015Z" fill="#FFD858"/>
<path d="M16.0146 18.8819L15.5952 20.5586L9.42502 21.5078C9.1811 21.5453 9.0011 21.7553 9.0011 22.0017V30H10.0009V22.4312L16.0756 21.4963C16.274 21.4659 16.435 21.3189 16.484 21.1235L16.9838 19.1239L16.0146 18.8819Z" fill="#FFD858"/>
<path d="M13.0021 25.9994H12.0023V26.9992H13.0021V25.9994Z" fill="#FFD858"/>
<path d="M13.0021 23.0001H12.0023V23.9999H13.0021V23.0001Z" fill="#FFD858"/>
<path d="M13.0021 28.9987H12.0023V29.9985H13.0021V28.9987Z" fill="#FFD858"/>
<path d="M18.0011 25.9994H17.0013V26.9992H18.0011V25.9994Z" fill="#FFD858"/>
<path d="M18.0011 23.0001H17.0013V23.9999H18.0011V23.0001Z" fill="#FFD858"/>
<path d="M18.0011 28.9987H17.0013V29.9985H18.0011V28.9987Z" fill="#FFD858"/>
<path d="M21.0005 22.5002H20.0007V29.9985H21.0005V22.5002Z" fill="#FFD858"/>
<path d="M19.5007 7.00348H12.0023V8.00326H19.5007V7.00348Z" fill="#FFD858"/>
<path d="M17.0012 5.50385H16.0015V7.50341H17.0012V5.50385Z" fill="#FFD858"/>
<path d="M14.002 5.50385H13.0022V7.50341H14.002V5.50385Z" fill="#FFD858"/>
<path d="M13.983 18.8799L13.0132 19.1223L13.513 21.1217L14.4828 20.8792L13.983 18.8799Z" fill="#FFD858"/>
</g>
<defs>
<clipPath id="clip0">
<rect width="30" height="30" fill="white"/>
</clipPath>
</defs>
</svg>
