<svg width="70" height="70" viewBox="0 0 70 70" fill="none" xmlns="http://www.w3.org/2000/svg">
<path d="M41.8602 48.678C47.5585 45.883 51.3465 39.6182 51.3465 31.9679C51.3465 28.8192 50.6999 25.8459 49.5577 23.219V16.5369C52.2074 15.2324 53.9244 12.5293 53.9244 9.5142C53.9244 5.19419 50.4099 1.67969 46.0894 1.67969C43.9877 1.67969 41.9967 2.53135 40.5446 3.98641C39.0934 2.53135 37.1029 1.67969 34.9998 1.67969C32.8971 1.67969 30.9062 2.53135 29.4545 3.98641C28.0028 2.53135 26.0119 1.67969 23.9092 1.67969C19.5892 1.67969 16.0752 5.19419 16.0752 9.5142C16.0752 12.5298 17.7916 15.2324 20.4409 16.5369V23.2195C19.2987 25.8464 18.652 28.8192 18.652 31.9679C18.652 39.6178 22.4401 45.883 28.1384 48.6775C23.0814 50.7005 16.3745 55.3786 16.3745 61.348V68.2687H19.2895V61.348C19.2895 57.1533 24.7424 53.2808 28.8521 51.5124L33.0322 55.7381L25.8151 63.3491C25.5586 63.6202 25.4153 63.9788 25.4153 64.3519V68.3197H28.3303V64.933L35.0833 57.8112L35.1023 57.8301L41.1499 51.5138C45.2596 53.2832 50.7101 57.1543 50.7101 61.348V68.2687H53.6251V61.348C53.6246 55.3781 46.9172 50.7 41.8602 48.678ZM23.3563 22.7055H46.6432V25.8901H23.3563V22.7055ZM18.9902 9.5142C18.9902 6.8018 21.1968 4.59467 23.9092 4.59467C25.6738 4.59467 27.313 5.55128 28.187 7.09136C28.4459 7.54756 28.9303 7.82934 29.4545 7.82934C29.9787 7.82934 30.4631 7.54756 30.722 7.09136C31.596 5.55128 33.2352 4.59467 34.9998 4.59467C36.7643 4.59467 38.403 5.55128 39.2765 7.09087C39.535 7.54707 40.0189 7.82934 40.5436 7.82934H40.5441C41.0683 7.82934 41.5522 7.54756 41.8111 7.09185C42.6866 5.55176 44.3258 4.59467 46.0894 4.59467C48.8022 4.59467 51.0094 6.80132 51.0094 9.5142C51.0094 11.6353 49.6554 13.5102 47.6401 14.1801C47.044 14.3779 46.6422 14.9351 46.6422 15.5633V19.791H23.3563V15.5633C23.3563 14.9356 22.9546 14.3783 22.3584 14.1801C20.3442 13.5102 18.9902 11.6353 18.9902 9.5142ZM21.5675 31.9683C21.5675 30.883 21.6627 29.8249 21.8308 28.7983C21.8537 28.7993 21.8755 28.8051 21.8989 28.8051H48.1007C48.124 28.8051 48.1459 28.7993 48.1687 28.7983C48.3363 29.8249 48.432 30.883 48.432 31.9683C48.432 40.7303 42.6574 47.3376 35.0007 47.3376C27.3426 47.3376 21.5675 40.7303 21.5675 31.9683ZM31.2662 49.8071C32.4589 50.0962 33.706 50.2526 35.0003 50.2526C36.2581 50.2526 37.4717 50.1049 38.6343 49.8319L35.0396 53.6223L31.2662 49.8071Z" fill="white"/>
<path d="M39.6924 41.1489H36.7774C36.7774 41.9078 35.9637 42.5486 35.0003 42.5486C34.0369 42.5486 33.2231 41.9078 33.2231 41.1489H30.3081C30.3081 43.5275 32.4132 45.4636 35.0003 45.4636C37.5873 45.4636 39.6924 43.528 39.6924 41.1489Z" fill="white"/>
<path d="M26.9772 33.8724C27.7194 33.8724 28.321 33.1068 28.321 32.1623C28.321 31.2178 27.7194 30.4521 26.9772 30.4521C26.2351 30.4521 25.6334 31.2178 25.6334 32.1623C25.6334 33.1068 26.2351 33.8724 26.9772 33.8724Z" fill="white"/>
<path d="M43.0218 33.8724C43.7639 33.8724 44.3656 33.1068 44.3656 32.1623C44.3656 31.2178 43.7639 30.4521 43.0218 30.4521C42.2796 30.4521 41.678 31.2178 41.678 32.1623C41.678 33.1068 42.2796 33.8724 43.0218 33.8724Z" fill="white"/>
<path d="M35.0002 38.4878C35.8052 38.4878 36.4577 37.8353 36.4577 37.0303V34.9135C36.4577 34.1085 35.8052 33.4561 35.0002 33.4561C34.1952 33.4561 33.5427 34.1085 33.5427 34.9135V37.0303C33.5427 37.8353 34.1947 38.4878 35.0002 38.4878Z" fill="white"/>
<path d="M45.2129 61.4775H37.7642V64.3925H45.2129V61.4775Z" fill="white"/>
</svg>
