<svg xmlns="http://www.w3.org/2000/svg" id="clock" xmlns:xlink="http://www.w3.org/1999/xlink" width="24" height="24"><defs><path id="a" d="M621.117 2042.299a10.53 10.53 0 0 1-3.856 3.848 10.319 10.319 0 0 1-5.285 1.419c-1.43 0-2.794-.276-4.093-.84-1.298-.565-2.42-1.308-3.357-2.247-.938-.94-1.685-2.073-2.243-3.376a10.355 10.355 0 0 1-.826-4.111c0-1.905.467-3.668 1.403-5.28a10.536 10.536 0 0 1 3.843-3.85 10.239 10.239 0 0 1 5.272-1.418c1.902 0 3.671.476 5.286 1.419a10.563 10.563 0 0 1 3.856 3.849c.944 1.615 1.416 3.375 1.416 5.28 0 1.905-.469 3.68-1.416 5.307zm1.925-9.973c-1.265-2.952-3.415-5.098-6.39-6.368a11.79 11.79 0 0 0-4.672-.958c-1.627 0-3.173.321-4.658.958-2.95 1.266-5.11 3.412-6.377 6.368a11.69 11.69 0 0 0-.945 4.66c0 1.629.31 3.194.945 4.675 1.267 2.956 3.427 5.115 6.377 6.38 1.485.638 3.031.959 4.658.959a11.8 11.8 0 0 0 4.672-.958c2.974-1.27 5.124-3.43 6.39-6.381a11.75 11.75 0 0 0 .958-4.674c0-1.628-.32-3.175-.958-4.66z"/><path id="b" d="M612.38 2037.258v-6.55a.716.716 0 0 0-.709-.708c-.354 0-.671.316-.671.708v6.651c0 .013.024.064.024.101a.676.676 0 0 0 .184.57l3.649 3.78a.677.677 0 0 0 .94 0 .7.7 0 0 0 0-.986z"/></defs><use xlink:href="#a" transform="translate(-600 -2025)"/><use xlink:href="#b" transform="translate(-600 -2025)"/></svg>