<svg width="32" height="32" viewBox="0 0 32 32" fill="none" xmlns="http://www.w3.org/2000/svg">
<g clip-path="url(#clip0)">
<path d="M31.4894 27.2766H30.7979C30.796 27.2766 1.20361 27.2766 1.20361 27.2766C1.20272 27.2766 0.510638 27.2766 0.510638 27.2766C0.228562 27.2766 0 27.5052 0 27.7872C0 28.0693 0.228562 28.2979 0.510638 28.2979H0.806332L1.1008 29.3286C1.31745 30.0868 2.10492 30.6809 2.89362 30.6809H29.1064C29.8951 30.6809 30.6826 30.0868 30.8993 29.3286L31.1937 28.2979H31.4894C31.7714 28.2979 32 28.0693 32 27.7872C32 27.5052 31.7714 27.2766 31.4894 27.2766ZM29.9173 29.048C29.8258 29.3681 29.4393 29.6596 29.1064 29.6596H2.89362C2.56068 29.6596 2.17423 29.368 2.08279 29.048L1.86846 28.2979H30.1315L29.9173 29.048Z" fill="#383838"/>
<path d="M7.82377 19.5318H8.75047C9.26717 20.8153 9.71626 22.2029 9.71626 23.702C9.71626 25.1099 10.8616 26.2552 12.2695 26.2552H19.7588C21.1667 26.2552 22.312 25.1099 22.312 23.702C22.312 21.6831 23.1179 19.8491 23.971 17.9075C24.829 15.9547 25.7163 13.9355 25.7163 11.702C25.7163 11.42 25.4877 11.1914 25.2056 11.1914H1.5259C1.24382 11.1914 1.01526 11.42 1.01526 11.702V12.7233C1.01526 16.4775 4.06956 19.5318 7.82377 19.5318ZM2.03654 12.2127H21.9527C21.9072 12.8902 21.773 13.5984 21.543 14.3636C21.4618 14.6337 21.615 14.9185 21.885 14.9997C21.934 15.0144 21.9835 15.0214 22.0322 15.0214C22.2518 15.0214 22.4545 14.8787 22.521 14.6576C22.781 13.7928 22.9314 12.988 22.9774 12.2127H24.678C24.5577 14.0333 23.8166 15.7199 23.036 17.4966C22.1779 19.4494 21.2907 21.4686 21.2907 23.702C21.2907 24.5468 20.6034 25.234 19.7587 25.234H12.2694C11.4247 25.234 10.7375 24.5468 10.7375 23.702C10.7375 21.896 10.1448 20.2234 9.56498 18.8255C9.48586 18.6348 9.29972 18.5106 9.09328 18.5106H7.82377C4.63269 18.5106 2.03654 15.9144 2.03654 12.7233V12.2127Z" fill="#383838"/>
<path d="M7.82356 17.4892H8.20852C8.38036 17.4892 8.54077 17.4027 8.63527 17.2591C8.72971 17.1155 8.7455 16.934 8.67728 16.7761C8.24862 15.7836 7.8173 14.7154 7.56627 13.6295C7.51269 13.398 7.30646 13.2339 7.0687 13.2339H3.69216C3.53515 13.2339 3.38686 13.3061 3.29012 13.4297C3.1933 13.5533 3.15878 13.7146 3.19643 13.867C3.72361 15.9998 5.62646 17.4892 7.82356 17.4892ZM6.66993 14.2552C6.8718 15.0108 7.14258 15.7451 7.43024 16.4475C6.09549 16.3083 4.94669 15.4676 4.40535 14.2552H6.66993Z" fill="#383838"/>
<path d="M19.0641 23.5302C19.0785 23.5314 19.0928 23.532 19.107 23.532C19.3698 23.532 19.5932 23.3302 19.6153 23.0636C19.7631 21.2861 20.4841 19.6451 21.2475 17.9077C21.4135 17.5297 21.5852 17.1389 21.7482 16.7513C21.8576 16.4913 21.7355 16.1919 21.4756 16.0826C21.2155 15.9732 20.9162 16.0953 20.8069 16.3553C20.6469 16.7355 20.4769 17.1226 20.3124 17.4969C19.5489 19.2345 18.7594 21.0314 18.5975 22.9791C18.5742 23.2601 18.7831 23.5069 19.0641 23.5302Z" fill="#383838"/>
<path d="M13.1063 9.65952C13.1063 9.94153 13.3349 10.1702 13.617 10.1702C13.899 10.1702 14.1276 9.94153 14.1276 9.65952C14.1276 9.13227 14.2523 8.89336 14.4101 8.59085C14.5968 8.23307 14.8085 7.82741 14.8085 7.04981C14.8085 6.27215 14.5968 5.8665 14.4101 5.50857C14.2523 5.20607 14.1276 4.96709 14.1276 4.43977C14.1276 3.91245 14.2523 3.67347 14.4101 3.37097C14.5968 3.01312 14.8085 2.60747 14.8085 1.82973C14.8085 1.54772 14.5799 1.31909 14.2978 1.31909C14.0157 1.31909 13.7872 1.54772 13.7872 1.82973C13.7872 2.35705 13.6625 2.59603 13.5047 2.89853C13.318 3.25639 13.1063 3.66204 13.1063 4.43977C13.1063 5.21751 13.3179 5.62309 13.5047 5.98102C13.6625 6.28352 13.7872 6.5225 13.7872 7.04981C13.7872 7.57707 13.6625 7.81598 13.5047 8.11848C13.3179 8.47627 13.1063 8.88192 13.1063 9.65952Z" fill="#383838"/>
<path d="M17.1914 9.65952C17.1914 9.94153 17.42 10.1702 17.702 10.1702C17.9841 10.1702 18.2127 9.94153 18.2127 9.65952C18.2127 9.13227 18.3374 8.89336 18.4952 8.59085C18.6819 8.23307 18.8935 7.82741 18.8935 7.04981C18.8935 6.27215 18.6819 5.8665 18.4952 5.50857C18.3374 5.20607 18.2127 4.96709 18.2127 4.43977C18.2127 3.91245 18.3374 3.67347 18.4952 3.37097C18.6819 3.01312 18.8935 2.60747 18.8935 1.82973C18.8935 1.54772 18.665 1.31909 18.3829 1.31909C18.1008 1.31909 17.8723 1.54772 17.8723 1.82973C17.8723 2.35705 17.7476 2.59603 17.5898 2.89853C17.4031 3.25639 17.1914 3.66204 17.1914 4.43977C17.1914 5.21751 17.403 5.62309 17.5898 5.98102C17.7476 6.28352 17.8723 6.5225 17.8723 7.04981C17.8723 7.57707 17.7476 7.81598 17.5898 8.11848C17.403 8.47627 17.1914 8.88192 17.1914 9.65952Z" fill="#383838"/>
</g>
<defs>
<clipPath id="clip0">
<rect width="32" height="32" fill="white"/>
</clipPath>
</defs>
</svg>
