<svg width="58" height="58" viewBox="0 0 58 58" fill="none" xmlns="http://www.w3.org/2000/svg">
<path d="M28.4336 39.9507V33.4556C28.4336 33.3053 28.4933 33.1613 28.5995 33.0551C28.7057 32.9488 28.8498 32.8892 29 32.8892C29.1502 32.8892 29.2943 32.9488 29.4005 33.0551C29.5067 33.1613 29.5664 33.3053 29.5664 33.4556V39.9507C29.5664 40.1009 29.5067 40.245 29.4005 40.3512C29.2943 40.4574 29.1502 40.5171 29 40.5171C28.8498 40.5171 28.7057 40.4574 28.5995 40.3512C28.4933 40.245 28.4336 40.1009 28.4336 39.9507Z" fill="#383838"/>
<path d="M32.3441 40.5171C32.3154 40.5169 32.2868 40.5148 32.2584 40.5107C32.1099 40.4883 31.9763 40.4077 31.8871 40.2868C31.7979 40.1659 31.7603 40.0145 31.7826 39.8659L32.7646 33.3713C32.787 33.2227 32.8675 33.0891 32.9884 32.9998C33.1093 32.9106 33.2608 32.8731 33.4094 32.8955C33.558 32.9179 33.6916 32.9984 33.7808 33.1194C33.87 33.2403 33.9076 33.3917 33.8851 33.5403L32.9037 40.0354C32.8833 40.1693 32.8157 40.2915 32.713 40.3798C32.6104 40.4682 32.4795 40.5169 32.3441 40.5171Z" fill="#383838"/>
<path d="M25.5736 35.6066L26.2174 39.866C26.2398 40.0146 26.2022 40.166 26.113 40.2869C26.0238 40.4078 25.8902 40.4883 25.7417 40.5108C25.7134 40.5149 25.685 40.517 25.6565 40.5171C25.5211 40.5168 25.3902 40.468 25.2876 40.3796C25.1851 40.2912 25.1176 40.1689 25.0973 40.035L24.4534 35.7756C24.431 35.6271 24.4686 35.4756 24.5578 35.3547C24.647 35.2338 24.7806 35.1533 24.9292 35.1309C25.0778 35.1084 25.2292 35.146 25.3501 35.2352C25.4711 35.3244 25.5516 35.458 25.574 35.6066H25.5736Z" fill="#383838"/>
<path d="M24.7158 34.297C24.5803 34.2967 24.4494 34.248 24.3468 34.1595C24.2443 34.0711 24.1768 33.9488 24.1566 33.8148L24.1154 33.5403C24.1043 33.4667 24.1079 33.3916 24.1259 33.3194C24.1438 33.2472 24.1758 33.1793 24.22 33.1195C24.2643 33.0596 24.3198 33.0091 24.3836 32.9707C24.4474 32.9324 24.518 32.907 24.5916 32.8959C24.6652 32.8849 24.7402 32.8884 24.8124 32.9064C24.8846 32.9244 24.9526 32.9564 25.0124 33.0006C25.0722 33.0448 25.1228 33.1004 25.1611 33.1641C25.1995 33.2279 25.2249 33.2986 25.236 33.3721L25.2772 33.6467C25.2894 33.7274 25.284 33.8098 25.2614 33.8882C25.2388 33.9666 25.1996 34.0392 25.1463 34.101C25.093 34.1628 25.027 34.2124 24.9527 34.2463C24.8785 34.2802 24.7978 34.2976 24.7162 34.2974L24.7158 34.297Z" fill="#383838"/>
<path d="M18.5288 22.7342L16.468 20.6734C16.1709 20.3799 15.9347 20.0305 15.7732 19.6453C15.6116 19.2602 15.5277 18.8469 15.5265 18.4292C15.5252 18.0115 15.6065 17.5977 15.7658 17.2116C15.925 16.8255 16.1591 16.4746 16.4544 16.1793C16.7498 15.884 17.1006 15.6499 17.4867 15.4907C17.8728 15.3314 18.2866 15.2501 18.7043 15.2514C19.122 15.2526 19.5353 15.3365 19.9204 15.498C20.3056 15.6596 20.655 15.8958 20.9485 16.1929L21.0079 16.2518L21.0668 16.1925C21.361 15.8982 21.7102 15.6648 22.0946 15.5056C22.479 15.3463 22.891 15.2644 23.3071 15.2644C23.7232 15.2643 24.1352 15.3463 24.5196 15.5055C24.904 15.6647 25.2533 15.898 25.5475 16.1922C25.8417 16.4864 26.0751 16.8357 26.2344 17.2201C26.3936 17.6045 26.4756 18.0165 26.4756 18.4325C26.4756 18.8486 26.3937 19.2606 26.2345 19.645C26.0753 20.0294 25.8419 20.3787 25.5477 20.673L21.4084 24.8122C21.3558 24.8649 21.2934 24.9066 21.2247 24.9351C21.1559 24.9635 21.0823 24.9782 21.0079 24.9782C20.9335 24.9782 20.8598 24.9635 20.7911 24.9351C20.7224 24.9066 20.6599 24.8649 20.6073 24.8122L19.4908 23.6953C19.0238 23.7384 18.5706 23.8771 18.1593 24.1027C17.7481 24.3283 17.3876 24.636 17.1003 25.0067C16.813 25.3774 16.6049 25.8032 16.4889 26.2577C16.373 26.7122 16.3517 27.1856 16.4264 27.6487C16.5011 28.1117 16.6701 28.5545 16.9231 28.9495C17.176 29.3445 17.5074 29.6833 17.8967 29.9449C18.2861 30.2065 18.725 30.3852 19.1863 30.4701C19.6476 30.555 20.1214 30.5441 20.5783 30.4382C20.5824 30.4382 20.5856 30.4346 20.5896 30.4342C20.5937 30.4337 20.5942 30.4342 20.596 30.4342C21.0431 30.3319 21.465 30.1403 21.8362 29.8709C22.2074 29.6015 22.5203 29.2598 22.756 28.8664C22.833 28.7391 22.9569 28.6471 23.101 28.6104C23.2451 28.5737 23.3979 28.5952 23.5263 28.6702C24.2363 29.0874 25.0531 29.2872 25.8755 29.2449C26.6979 29.2025 27.4899 28.9198 28.1532 28.4318C28.228 28.3771 28.315 28.3416 28.4066 28.3284C28.4983 28.3152 28.5918 28.3247 28.679 28.356C28.7661 28.3873 28.8443 28.4395 28.9066 28.508C28.9689 28.5765 29.0135 28.6593 29.0363 28.749C29.2138 29.447 29.6074 30.071 30.1609 30.5318C30.7144 30.9926 31.3994 31.2666 32.118 31.3145C32.8366 31.3625 33.552 31.182 34.1618 30.7988C34.7716 30.4157 35.2447 29.8495 35.5133 29.1813C35.5478 29.0958 35.6026 29.02 35.673 28.9604C35.7435 28.9009 35.8273 28.8595 35.9174 28.8398C36.0075 28.82 36.101 28.8226 36.1898 28.8472C36.2787 28.8718 36.3602 28.9177 36.4273 28.981C36.7921 29.3249 37.2355 29.5743 37.7189 29.7073C38.2022 29.8404 38.7108 29.8531 39.2002 29.7443C39.6896 29.6355 40.145 29.4085 40.5264 29.0832C40.9079 28.7579 41.2039 28.3441 41.3886 27.878C41.5734 27.4119 41.6411 26.9077 41.5861 26.4094C41.531 25.9111 41.3548 25.4338 41.0728 25.0193C40.7908 24.6048 40.4116 24.2656 39.9683 24.0314C39.525 23.7972 39.0311 23.6751 38.5298 23.6758C38.4199 23.676 38.3101 23.6821 38.2008 23.6939C38.1185 23.7034 38.0352 23.6944 37.9568 23.6677C37.8785 23.6409 37.807 23.5971 37.7477 23.5394C37.688 23.4822 37.6417 23.4127 37.6118 23.3356C37.5819 23.2586 37.5692 23.176 37.5746 23.0935L37.5791 23.0274C37.5855 22.9417 37.5913 22.8561 37.5913 22.7687C37.5899 21.6656 37.2053 20.5974 36.5032 19.7467C35.8012 18.8959 34.8254 18.3155 33.7427 18.1047C32.66 17.8939 31.5378 18.0659 30.5678 18.5911C29.5979 19.1164 28.8407 19.9623 28.4255 20.9842C28.3986 21.0546 28.3579 21.1189 28.3058 21.1734C28.2538 21.2278 28.1914 21.2713 28.1223 21.3013C28.0532 21.3314 27.9788 21.3473 27.9034 21.3482C27.8281 21.3492 27.7533 21.335 27.6835 21.3067C27.6137 21.2784 27.5502 21.2364 27.4968 21.1832C27.4435 21.1301 27.4012 21.0668 27.3726 20.9971C27.344 20.9274 27.3295 20.8527 27.3301 20.7773C27.3307 20.702 27.3464 20.6275 27.3761 20.5583C27.8827 19.3102 28.8018 18.2734 29.9801 17.6207C31.1584 16.9681 32.5249 16.739 33.8516 16.9716C35.1784 17.2043 36.3854 17.8846 37.2714 18.8992C38.1573 19.9139 38.6688 21.2015 38.7205 22.5475C39.3669 22.5763 39.9979 22.7538 40.5645 23.0662C41.1311 23.3787 41.6179 23.8176 41.9871 24.349C42.3564 24.8803 42.598 25.4896 42.6933 26.1296C42.7886 26.7695 42.7349 27.4229 42.5364 28.0387C42.338 28.6545 42.0001 29.2163 41.5491 29.6802C41.0981 30.1441 40.5462 30.4977 39.9362 30.7135C39.3262 30.9293 38.6747 31.0014 38.0323 30.9243C37.3899 30.8472 36.774 30.6228 36.2324 30.2688C35.8012 30.9796 35.1834 31.5585 34.4461 31.9428C33.7089 32.327 32.8804 32.5018 32.0508 32.4482C31.2211 32.3946 30.4221 32.1146 29.7404 31.6386C29.0588 31.1627 28.5206 30.509 28.1845 29.7486C27.4544 30.1352 26.6455 30.3493 25.8197 30.3745C24.994 30.3997 24.1735 30.2354 23.4212 29.894C22.8787 30.5997 22.1396 31.1291 21.297 31.4156L22.6971 41.6023H35.3031L36.4359 33.3786C36.443 33.3025 36.4655 33.2287 36.5019 33.1616C36.5383 33.0945 36.5879 33.0354 36.6477 32.9879C36.7075 32.9405 36.7763 32.9056 36.8499 32.8854C36.9236 32.8652 37.0005 32.8601 37.0762 32.8704C37.1519 32.8807 37.2247 32.9062 37.2902 32.9453C37.3558 32.9845 37.4128 33.0365 37.4577 33.0982C37.5027 33.16 37.5347 33.2302 37.5518 33.3046C37.5689 33.379 37.5708 33.4561 37.5574 33.5313L36.3584 42.244C36.3402 42.3799 36.2732 42.5047 36.17 42.595C36.0667 42.6854 35.9342 42.7352 35.797 42.7351H22.2032C22.0664 42.7351 21.9343 42.6856 21.8312 42.5957C21.7281 42.5059 21.661 42.3817 21.6423 42.2462L20.1823 31.6399C20.0631 31.649 19.9448 31.6603 19.8239 31.6603C18.728 31.6613 17.6685 31.2673 16.8395 30.5506C16.0106 29.8339 15.4677 28.8424 15.3103 27.7579C15.153 26.6734 15.3918 25.5685 15.9829 24.6458C16.574 23.723 17.4779 23.0442 18.5288 22.7338V22.7342ZM21.0079 23.611L24.7462 19.8723C24.9353 19.6833 25.0853 19.4589 25.1877 19.2119C25.2901 18.965 25.3428 18.7002 25.3429 18.4329C25.3431 17.8929 25.1287 17.375 24.7471 16.9931C24.3654 16.6112 23.8476 16.3965 23.3077 16.3964C23.0403 16.3963 22.7756 16.4489 22.5285 16.5511C22.2815 16.6533 22.057 16.8032 21.8679 16.9922L21.4084 17.4521C21.3558 17.5048 21.2934 17.5466 21.2246 17.5751C21.1558 17.6036 21.0821 17.6183 21.0077 17.6183C20.9332 17.6183 20.8595 17.6036 20.7907 17.5751C20.7219 17.5466 20.6595 17.5048 20.6069 17.4521L20.1474 16.9922C19.7639 16.6195 19.2491 16.4127 18.7143 16.4165C18.1795 16.4203 17.6677 16.6345 17.2895 17.0126C16.9114 17.3908 16.6972 17.9026 16.6934 18.4374C16.6896 18.9721 16.8964 19.4869 17.2691 19.8705L21.0079 23.611Z" fill="#383838"/>
</svg>
