<svg width="30" height="30" viewBox="0 0 30 30" fill="none" xmlns="http://www.w3.org/2000/svg">
<g clip-path="url(#clip0)">
<path d="M7.06056 13.7676L9.6465 16.3535C9.84206 16.5491 10.158 16.5491 10.3535 16.3535L11 15.707V15.9646L9.56593 26H4.00002C3.78444 26 3.59401 26.1375 3.5259 26.342L2.5259 29.342C2.47463 29.4944 2.5005 29.6626 2.5945 29.7925C2.68849 29.9231 2.83962 30 3.00002 30H27C27.1604 30 27.3115 29.9231 27.406 29.7925C27.5 29.6621 27.5254 29.4939 27.4746 29.342L26.4746 26.342C26.406 26.1375 26.2156 26 26 26H25.3384L24.4646 23.8145C24.388 23.6245 24.2046 23.5 24 23.5H22.417L21.4915 18.4104C21.4734 18.3105 21.4251 18.218 21.3535 18.1465L19 15.793V11.5H19.5C19.6331 11.5 19.76 11.4475 19.8535 11.3535L27.3535 3.85352C27.5491 3.65796 27.5491 3.34204 27.3535 3.14648L25.3535 1.14648C25.158 0.950928 24.8421 0.950928 24.6465 1.14648L18.793 7H17.637C18.4705 6.2666 19 5.19507 19 4C19 1.79443 17.2056 0 15 0C12.7944 0 11 1.79443 11 4C11 5.19507 11.5296 6.2666 12.3631 7H10.5C10.367 7 10.24 7.05249 10.1465 7.14648L7.06056 10.2324C6.08595 11.207 6.08595 12.793 7.06056 13.7676ZM24.2615 26H23V27H25.6394L26.3059 29H3.69411L4.36061 27H15.5C15.7046 27 15.888 26.8755 15.9646 26.6855L16.8384 24.5H23.6616L24.2615 26ZM14.0901 26L15.353 18.4231L17.0506 19.7805L17.8765 23.5H16.5C16.2954 23.5 16.1121 23.6245 16.0354 23.8145L15.1616 26H14.0901ZM16.2305 8L15 10.769L13.7695 8H16.2305ZM12 4C12 2.34546 13.3455 1 15 1C16.6546 1 18 2.34546 18 4C18 5.65454 16.6546 7 15 7C13.3455 7 12 5.65454 12 4ZM7.76759 10.9395L10.707 8H12.6751L14.543 12.2029C14.6236 12.384 14.802 12.5 15 12.5C15.198 12.5 15.3765 12.384 15.457 12.2029L17.325 8H19C19.1331 8 19.26 7.94751 19.3535 7.85352L25 2.20703L26.293 3.5L19.293 10.5H18.5C18.2234 10.5 18 10.7234 18 11V16C18 16.1331 18.0525 16.26 18.1465 16.3535L20.5359 18.7429L21.4009 23.5H18.9009L17.9885 19.3916C17.9634 19.28 17.9016 19.1804 17.8125 19.1096L15.3125 17.1096C15.1736 16.999 14.9876 16.969 14.8215 17.0334C14.656 17.0964 14.5366 17.2429 14.5071 17.4185L13.0764 26H10.5764L11.9951 16.071C11.9986 16.0476 12 16.0234 12 16V14.707L12.3535 14.3535C12.5491 14.158 12.5491 13.842 12.3535 13.6465L10.707 12L11.8535 10.8535L11.1465 10.1465L9.6465 11.6465C9.45094 11.842 9.45094 12.158 9.6465 12.3535L11.293 14L10 15.293L7.76759 13.0605C7.48464 12.7776 7.32863 12.4009 7.32863 12C7.32863 11.5991 7.48464 11.2224 7.76759 10.9395Z" fill="#383838"/>
<path d="M21 26H22V27H21V26Z" fill="#383838"/>
<path d="M5.5 25H6.5C6.5 21.416 3.58398 18.5 0 18.5V19.5C3.03247 19.5 5.5 21.9675 5.5 25Z" fill="#383838"/>
<path d="M4.5 15.5H5.5C5.5 12.4675 3.03247 10 0 10V11C2.48145 11 4.5 13.0186 4.5 15.5Z" fill="#383838"/>
<path d="M24.5 22H25.5C25.5 19.5186 27.5186 17.5 30 17.5V16.5C26.9675 16.5 24.5 18.9675 24.5 22Z" fill="#383838"/>
<path d="M22.5 13.5H23.5C23.5 11.0186 25.5186 9 28 9V8C24.9675 8 22.5 10.4675 22.5 13.5Z" fill="#383838"/>
<path d="M2 4H3V5H2V4Z" fill="#383838"/>
<path d="M4.5 16.5H5.5V17.5H4.5V16.5Z" fill="#383838"/>
<path d="M29 0H30V1H29V0Z" fill="#383838"/>
<path d="M1.5 24.5H2.5V25.5H1.5V24.5Z" fill="#383838"/>
<path d="M6.5 1H7.5V2H6.5V1Z" fill="#383838"/>
<path d="M5.5 6.5H6.5V7.5H5.5V6.5Z" fill="#383838"/>
<path d="M29 8H30V9H29V8Z" fill="#383838"/>
<path d="M19 26H20V27H19V26Z" fill="#383838"/>
<path d="M17 26H18V27H17V26Z" fill="#383838"/>
</g>
<defs>
<clipPath id="clip0">
<rect width="30" height="30" fill="white"/>
</clipPath>
</defs>
</svg>
