<svg width="32" height="32" viewBox="0 0 32 32" fill="none" xmlns="http://www.w3.org/2000/svg">
<path d="M19.2012 11.1922C19.2012 11.4867 19.4396 11.7257 19.7347 11.7257H25.0701C25.3652 11.7257 25.6037 11.4867 25.6037 11.1922C25.6037 10.8977 25.3652 10.6587 25.0701 10.6587H19.7347C19.4396 10.6586 19.2012 10.8977 19.2012 11.1922Z" fill="#383838"/>
<path d="M22.4026 14.3936C22.4026 14.6881 22.6411 14.9272 22.9361 14.9272H26.1374C26.4325 14.9272 26.6709 14.6881 26.6709 14.3936C26.6709 14.0991 26.4325 13.8601 26.1374 13.8601H22.9361C22.6411 13.86 22.4026 14.0991 22.4026 14.3936Z" fill="#383838"/>
<path d="M21.869 8.52458C22.164 8.52458 22.4025 8.28554 22.4025 7.99105C22.4025 7.69655 22.164 7.45752 21.869 7.45752H20.8018C20.5068 7.45752 20.2683 7.69655 20.2683 7.99105C20.2683 8.28554 20.5068 8.52458 20.8018 8.52458H21.869Z" fill="#383838"/>
<path d="M15.4664 13.8599C15.1713 13.8599 14.9329 14.0989 14.9329 14.3934C14.9329 14.6879 15.1713 14.9269 15.4664 14.9269H20.8018C21.0969 14.9269 21.3354 14.6879 21.3354 14.3934C21.3354 14.0989 21.0969 13.8599 20.8018 13.8599H15.4664Z" fill="#383838"/>
<path d="M18.1341 28.7992H7.99675C7.11427 28.7992 6.39611 28.081 6.39611 27.1985V2.65535C6.39611 2.36086 6.15764 2.12183 5.86258 2.12183C4.39162 2.12183 3.19482 3.31855 3.19482 4.78958C3.19482 5.08407 3.43329 5.32311 3.72835 5.32311C4.02341 5.32311 4.26188 5.08407 4.26188 4.78958C4.26188 4.0938 4.70793 3.5005 5.32899 3.28016V27.1985C5.32899 28.6695 6.52572 29.8663 7.99675 29.8663H18.1341C18.4292 29.8663 18.6676 29.6273 18.6676 29.3328C18.6676 29.0383 18.4292 28.7992 18.1341 28.7992Z" fill="#383838"/>
<path d="M10.1309 11.7257H17.6006C17.8957 11.7257 18.1341 11.4867 18.1341 11.1922C18.1341 10.8977 17.8957 10.6587 17.6006 10.6587H10.1309C9.83588 10.6587 9.59741 10.8977 9.59741 11.1922C9.59741 11.4867 9.83588 11.7257 10.1309 11.7257Z" fill="#383838"/>
<path d="M10.1309 8.52458H12.2651C12.5602 8.52458 12.7986 8.28554 12.7986 7.99105C12.7986 7.69655 12.5602 7.45752 12.2651 7.45752H10.1309C9.83588 7.45752 9.59741 7.69655 9.59741 7.99105C9.59741 8.28554 9.83588 8.52458 10.1309 8.52458Z" fill="#383838"/>
<path d="M18.6676 7.45728H14.3992C14.1042 7.45728 13.8657 7.69631 13.8657 7.9908C13.8657 8.2853 14.1042 8.52433 14.3992 8.52433H18.6676C18.9627 8.52433 19.2012 8.2853 19.2012 7.9908C19.2012 7.69631 18.9627 7.45728 18.6676 7.45728Z" fill="#383838"/>
<path d="M26.1373 0H5.86247C3.22085 0 1.07068 2.1443 1.06055 4.78323V4.78961V4.79548V4.80192V4.8083C1.06749 6.50979 1.98573 8.09493 3.46095 8.94865C3.71599 9.09589 4.04199 9.00892 4.18974 8.75444C4.33805 8.4994 4.25001 8.1729 3.99553 8.02559C2.84526 7.3592 2.12979 6.12245 2.12766 4.79555C2.13141 2.73922 3.80515 1.06711 5.86247 1.06711H26.1373C28.1962 1.06711 29.8721 2.74247 29.8721 4.80192V27.2109C29.8721 27.4814 29.7963 27.753 29.6539 27.9952C29.505 28.2492 29.5893 28.5763 29.8433 28.7256C29.9286 28.7758 30.0215 28.7993 30.1132 28.7993C30.2963 28.7993 30.4744 28.7054 30.5737 28.5362C30.8127 28.1302 30.9391 27.6719 30.9391 27.2109V4.80192C30.9392 2.15393 28.7853 0 26.1373 0Z" fill="#383838"/>
<path d="M27.7378 24.5309C27.7378 22.7654 26.302 21.3296 24.5365 21.3296C22.771 21.3296 21.3352 22.7654 21.3352 24.5309C21.3352 26.2964 22.771 27.7322 24.5365 27.7322C26.302 27.7322 27.7378 26.2964 27.7378 24.5309ZM24.5365 26.665C23.3595 26.665 22.4023 25.7078 22.4023 24.5309C22.4023 23.3539 23.3595 22.3967 24.5365 22.3967C25.7135 22.3967 26.6707 23.3539 26.6707 24.5309C26.6707 25.7078 25.7135 26.665 24.5365 26.665Z" fill="#383838"/>
<path d="M23.5736 28.2661C23.3191 28.1189 22.9926 28.2064 22.8448 28.4614L21.6961 30.4521L21.5136 30.1768C21.4213 30.0365 21.2682 29.9479 21.1006 29.9383L20.7709 29.9185L21.9388 27.8964C22.0861 27.6414 21.9986 27.3149 21.7436 27.1676C21.4885 27.0198 21.162 27.1073 21.0142 27.3628L19.4152 30.1325C19.3229 30.2926 19.3202 30.4895 19.4077 30.6522C19.4952 30.8148 19.6606 30.9211 19.8458 30.9317L20.7704 30.9872L21.281 31.7603C21.3797 31.9102 21.5472 31.9998 21.7259 31.9998H21.7425C21.9266 31.9939 22.0957 31.8931 22.1886 31.733L23.7694 28.9949C23.9167 28.7399 23.8292 28.4134 23.5736 28.2661Z" fill="#383838"/>
<path d="M28.0729 27.388C27.9251 27.1324 27.5981 27.0449 27.3441 27.1927C27.0885 27.34 27.001 27.6665 27.1483 27.9215L28.3023 29.9185L27.9726 29.9383C27.8051 29.9484 27.652 30.037 27.5591 30.1768L27.3777 30.4521L26.2349 28.4715C26.0866 28.2165 25.76 28.129 25.5055 28.2763C25.2505 28.4235 25.163 28.7501 25.3103 29.0051L26.8853 31.7331C26.9781 31.8932 27.1473 31.9941 27.3313 31.9999H27.3479C27.5261 31.9999 27.6942 31.9103 27.7934 31.7604L28.3035 30.9878L29.2276 30.9318C29.4127 30.9211 29.5781 30.815 29.6656 30.6523C29.7532 30.4896 29.7499 30.2927 29.6582 30.1326L28.0729 27.388Z" fill="#383838"/>
<path d="M10.1309 14.9272H13.3322C13.6273 14.9272 13.8657 14.6881 13.8657 14.3936C13.8657 14.0991 13.6273 13.8601 13.3322 13.8601H10.1309C9.83588 13.8601 9.59741 14.0991 9.59741 14.3936C9.59741 14.6881 9.83588 14.9272 10.1309 14.9272Z" fill="#383838"/>
<path d="M10.1309 18.1283H16.5335C16.8285 18.1283 17.067 17.8893 17.067 17.5948C17.067 17.3003 16.8285 17.0613 16.5335 17.0613H10.1309C9.83588 17.0613 9.59741 17.3003 9.59741 17.5948C9.59741 17.8893 9.83588 18.1283 10.1309 18.1283Z" fill="#383838"/>
<path d="M10.1873 24.7695C10.3186 25.033 10.6393 25.1398 10.9028 25.0085C11.1663 24.8767 11.2736 24.5561 11.1413 24.2925C10.6131 23.2361 10.4946 22.2885 10.8233 21.7565C10.9983 21.4732 11.3035 21.3297 11.7314 21.3297C11.9859 21.3297 12.0808 21.4172 12.1406 21.5026C12.5381 22.0756 12.1604 23.8208 11.765 24.8772C11.677 25.1125 11.765 25.3772 11.9763 25.5132C12.1865 25.6482 12.4645 25.6189 12.6422 25.4418C12.87 25.2145 13.1171 24.9877 13.3321 24.8036V25.0646C13.3321 25.2801 13.4618 25.4748 13.6613 25.557C13.8608 25.6402 14.0897 25.5943 14.2428 25.4418C14.4867 25.1985 14.7694 24.9599 15.0074 24.7882C15.001 24.8015 14.9946 24.8143 14.9882 24.8266C14.9065 24.992 14.9156 25.1884 15.0128 25.3452C15.1104 25.502 15.2817 25.5981 15.4662 25.5981H17.6004C17.8955 25.5981 18.1339 25.359 18.1339 25.0646C18.1339 24.7701 17.8955 24.531 17.6004 24.531H16.2116C16.2548 24.2771 16.2442 24.0188 16.1156 23.8107C15.9795 23.5904 15.7426 23.4639 15.4662 23.4639C15.1365 23.4639 14.7486 23.6645 14.3944 23.9132C14.3672 23.6805 14.2295 23.489 14.0204 23.4026C13.8779 23.3439 13.6943 23.2671 13.2489 23.5344C13.4244 22.6151 13.4756 21.5555 13.0178 20.8949C12.8177 20.6063 12.4325 20.2627 11.7314 20.2627C10.9322 20.2627 10.2871 20.594 9.91527 21.1959C9.38331 22.057 9.48198 23.3594 10.1873 24.7695Z" fill="#383838"/>
<path d="M24.5365 17.5948C24.5365 17.3003 24.2981 17.0613 24.003 17.0613H18.6676C18.3725 17.0613 18.134 17.3003 18.134 17.5948C18.134 17.8893 18.3725 18.1283 18.6676 18.1283H24.003C24.2981 18.1283 24.5365 17.8893 24.5365 17.5948Z" fill="#383838"/>
</svg>
