<svg width="30" height="30" viewBox="0 0 30 30" fill="none" xmlns="http://www.w3.org/2000/svg">
<g clip-path="url(#clip0)">
<path d="M30.0002 11.5001C30.0002 11.4896 29.9947 11.4806 29.9942 11.4707C29.9911 11.436 29.9842 11.4018 29.9737 11.3686C29.9668 11.3391 29.9572 11.3101 29.9452 11.2822C29.9309 11.2557 29.9142 11.2305 29.8952 11.2072C29.8754 11.1785 29.8526 11.152 29.8272 11.1282C29.8192 11.1211 29.8157 11.1117 29.8072 11.1051L25.0002 7.37061V3.50001C25.0002 2.6716 24.3285 1.99999 23.5001 1.99999H18.0815L15.9119 0.315445C15.3759 -0.102219 14.6245 -0.102219 14.0884 0.315445L11.9184 1.99999H6.49981C5.6714 1.99999 4.99978 2.67154 4.99978 3.50001V7.37061L0.193197 11.1051C0.1847 11.1117 0.181185 11.1211 0.173216 11.1282C0.147786 11.152 0.124992 11.1785 0.105187 11.2072C0.0862026 11.2305 0.0694445 11.2557 0.055206 11.2822C0.0430769 11.3101 0.033526 11.339 0.026729 11.3686C0.0162991 11.4012 0.00944352 11.4347 0.0062208 11.4687C0.0062208 11.4787 0.000244141 11.4877 0.000244141 11.4981V28.5004C0.00223636 28.6614 0.0304204 28.821 0.0837417 28.9729C-0.0310455 29.146 -0.0256547 29.3723 0.0971598 29.5398C0.219974 29.7072 0.434197 29.7804 0.633771 29.7229C0.886431 29.9035 1.18925 30.0005 1.4998 30.0004H28.5003C28.8121 29.9998 29.1159 29.9014 29.3688 29.719C29.4114 29.7321 29.4556 29.7393 29.5002 29.7405C29.6829 29.7415 29.8513 29.642 29.9385 29.4815C30.0257 29.321 30.0175 29.1256 29.9173 28.973C29.9704 28.821 29.9984 28.6614 30.0003 28.5005V11.5001H30.0002ZM14.6999 1.10448C14.8745 0.96573 15.1218 0.96573 15.2964 1.10448L16.4499 1.99999H13.5499L14.6999 1.10448ZM1.62373 29.0005L14.7 18.8433C14.8747 18.7054 15.1213 18.7054 15.296 18.8433L28.3762 29.0005H1.62373ZM29.0002 28.2195L15.9109 18.0538C15.3752 17.6367 14.6247 17.6367 14.0889 18.0538L0.999695 28.2195V12.2616L9.19335 18.6243C9.41167 18.7935 9.72586 18.7538 9.89514 18.5355C10.0644 18.3172 10.0247 18.003 9.80637 17.8337L1.48222 11.3696L4.99978 8.63661V12.5002C4.99978 12.7763 5.22367 13.0002 5.49977 13.0002C5.77593 13.0002 5.99976 12.7763 5.99976 12.5002V3.50001C5.99976 3.22386 6.22359 3.00002 6.49975 3.00002H23.5C23.7762 3.00002 24 3.22386 24 3.50001V12.5002C24 12.7763 24.2238 13.0002 24.5 13.0002C24.7762 13.0002 25 12.7763 25 12.5002V8.63661L28.5175 11.3696L20.1785 17.8452C19.9604 18.0146 19.9209 18.3288 20.0903 18.547C20.2597 18.7652 20.5739 18.8047 20.7921 18.6353L29.0002 12.2617V28.2195Z" fill="#383838"/>
<path d="M9.99975 6.49876H19.9999C20.2761 6.49876 20.4999 6.27493 20.4999 5.99877C20.4999 5.72261 20.2761 5.49878 19.9999 5.49878H9.99975C9.72359 5.49878 9.49976 5.72261 9.49976 5.99877C9.49976 6.27493 9.72359 6.49876 9.99975 6.49876Z" fill="#383838"/>
<path d="M20.4999 8.99877C20.4999 8.72261 20.2761 8.49878 19.9999 8.49878H9.99975C9.72359 8.49878 9.49976 8.72267 9.49976 8.99877C9.49976 9.27493 9.72359 9.49876 9.99975 9.49876H19.9999C20.2761 9.49876 20.4999 9.27487 20.4999 8.99877Z" fill="#383838"/>
<path d="M20.5001 11.9988C20.5001 11.7226 20.2762 11.4988 20.0001 11.4988H15.5C15.2238 11.4988 15 11.7226 15 11.9988C15 12.2749 15.2238 12.4988 15.5 12.4988H20.0001C20.2762 12.4988 20.5001 12.2749 20.5001 11.9988Z" fill="#383838"/>
</g>
<defs>
<clipPath id="clip0">
<rect width="30" height="30" fill="white"/>
</clipPath>
</defs>
</svg>
