<svg width="32" height="32" viewBox="0 0 32 32" fill="none" xmlns="http://www.w3.org/2000/svg">
<g clip-path="url(#clip0)">
<path d="M5.25862 5.92933C5.3568 6.02959 5.4917 6.08558 5.63206 6.08402C5.70315 6.08558 5.77399 6.07308 5.84013 6.04678C5.96826 5.98974 6.07086 5.88714 6.12815 5.75875C6.1542 5.69261 6.16696 5.62204 6.16539 5.55068C6.1667 5.41058 6.11097 5.27568 6.01071 5.1775C5.96201 5.12776 5.90394 5.08792 5.84013 5.06006C5.74144 5.02334 5.63493 5.01214 5.53076 5.02802C5.49873 5.0387 5.46149 5.04938 5.42946 5.06006C5.39743 5.07073 5.36539 5.09209 5.33857 5.10823C5.28206 5.15042 5.2318 5.20094 5.18935 5.25745C5.17347 5.28401 5.15732 5.31605 5.14144 5.34808C5.12529 5.38011 5.12008 5.41735 5.1094 5.44938C5.10498 5.48297 5.10315 5.51683 5.10394 5.55068C5.10237 5.62204 5.11513 5.69261 5.14144 5.75875C5.16904 5.82282 5.20888 5.88063 5.25862 5.92933Z" fill="#383838"/>
<path d="M4.12816 6.3084C3.97139 6.4584 3.92452 6.69043 4.01072 6.88965C4.0365 6.95449 4.0766 7.01282 4.12816 7.06022C4.22712 7.16309 4.36384 7.2209 4.50681 7.22038C4.57634 7.21907 4.64509 7.20449 4.70942 7.17767C4.77426 7.15189 4.83259 7.11178 4.87999 7.06022C4.92973 7.01152 4.96957 6.95345 4.99744 6.88965C5.0753 6.68965 5.02947 6.46256 4.87999 6.3084C4.66931 6.10814 4.33884 6.10814 4.12816 6.3084Z" fill="#383838"/>
<path d="M3.74926 7.43867C3.65082 7.33685 3.51514 7.2793 3.37348 7.2793C3.23155 7.2793 3.09587 7.33685 2.99744 7.43867C2.94457 7.48711 2.90447 7.54753 2.87999 7.61471C2.85264 7.67878 2.83832 7.74779 2.83728 7.81732C2.83884 7.95976 2.89639 8.0957 2.99744 8.19596C3.09796 8.29284 3.23129 8.34805 3.37061 8.35065C3.51202 8.34961 3.6477 8.2944 3.74926 8.19596C3.84874 8.09518 3.90447 7.95898 3.90395 7.81732C3.90499 7.74805 3.89249 7.6793 3.86671 7.61471C3.84041 7.54857 3.8003 7.48867 3.74926 7.43867Z" fill="#383838"/>
<path d="M5.63209 8.35065C5.70344 8.34987 5.77402 8.33555 5.84016 8.3082C5.9037 8.28216 5.96178 8.24414 6.01073 8.19596C6.11021 8.09518 6.16568 7.95898 6.16542 7.81732C6.16646 7.74805 6.1537 7.6793 6.12818 7.61471C6.10162 7.54857 6.06178 7.48867 6.01073 7.43867C5.91204 7.33685 5.77636 7.2793 5.63469 7.2793C5.49303 7.2793 5.35735 7.33685 5.25865 7.43867C5.20761 7.48867 5.16777 7.54857 5.14146 7.61471C5.11412 7.67878 5.09954 7.74779 5.09875 7.81732C5.10084 8.11107 5.33834 8.34883 5.63209 8.35065Z" fill="#383838"/>
<path d="M4.88001 8.56943C4.66829 8.37204 4.3399 8.37204 4.12818 8.56943C4.07532 8.61787 4.03521 8.67829 4.01074 8.74548C3.98339 8.80954 3.96881 8.87855 3.96803 8.94808C3.96673 9.16475 4.09667 9.36058 4.29693 9.44391C4.49693 9.52698 4.7274 9.48063 4.88001 9.32672C4.97949 9.22594 5.03521 9.08975 5.03469 8.94808C5.03574 8.87881 5.02298 8.8098 4.99745 8.74548C4.97115 8.67933 4.93105 8.61917 4.88001 8.56943Z" fill="#383838"/>
<path d="M6.76802 4.95367C6.83729 4.95471 6.9063 4.94195 6.97063 4.91617C7.03469 4.88857 7.0925 4.84872 7.14146 4.79898C7.19276 4.75159 7.23287 4.69325 7.25865 4.62815C7.28547 4.56409 7.30005 4.49534 7.30136 4.42555C7.30188 4.28284 7.24406 4.14612 7.14146 4.0469C7.09406 3.9956 7.03573 3.95549 6.97063 3.92945C6.77089 3.85055 6.54302 3.89638 6.38938 4.0469C6.28808 4.14664 6.23235 4.28362 6.23469 4.42555C6.23469 4.56643 6.2912 4.70159 6.3912 4.80081C6.49146 4.90003 6.62714 4.95497 6.76802 4.95367Z" fill="#383838"/>
<path d="M7.69617 3.78578C7.7605 3.81131 7.82951 3.82407 7.89878 3.82302C8.04044 3.82328 8.17664 3.76782 8.27742 3.66834C8.3756 3.56651 8.43107 3.4311 8.43211 3.28969C8.42924 3.15011 8.37404 3.01677 8.27742 2.91625C8.12326 2.76677 7.89617 2.72094 7.69617 2.79907C7.62872 2.82328 7.56857 2.86365 7.52013 2.91625C7.47039 2.96521 7.43055 3.02302 7.40268 3.08709C7.37716 3.15141 7.3644 3.22042 7.36544 3.28969C7.36284 3.43162 7.41883 3.5686 7.52013 3.66834C7.56987 3.71938 7.62977 3.75922 7.69617 3.78578Z" fill="#383838"/>
<path d="M3.74926 2.91089C3.59483 2.76167 3.36697 2.71792 3.16801 2.79891C3.03416 2.84735 2.92843 2.95282 2.87999 3.08693C2.85264 3.151 2.83832 3.21975 2.83728 3.28954C2.83832 3.43094 2.89379 3.56636 2.99197 3.66818C3.04509 3.71506 3.10421 3.75464 3.16801 3.78563C3.23259 3.81115 3.30134 3.82391 3.37061 3.82287C3.40655 3.82469 3.44249 3.82105 3.47738 3.81219C3.50994 3.80568 3.54223 3.79683 3.57348 3.78563C3.60655 3.76975 3.63858 3.75204 3.66931 3.73225C3.69744 3.71245 3.724 3.6911 3.74926 3.66818C3.77244 3.64292 3.79379 3.6161 3.81332 3.58824C3.83311 3.55725 3.85108 3.52521 3.86671 3.49214C3.87817 3.46089 3.88702 3.42886 3.89327 3.39605C3.90212 3.36141 3.90577 3.32547 3.90395 3.28954C3.90499 3.22027 3.89249 3.15126 3.86671 3.08693C3.83572 3.02313 3.7964 2.96402 3.74926 2.91089Z" fill="#383838"/>
<path d="M4.88 1.78023L4.80005 1.71617C4.74146 1.67815 4.67635 1.65107 4.60812 1.63622C4.50422 1.61461 4.39614 1.62581 4.29875 1.66825C4.23494 1.69404 4.17713 1.73206 4.12817 1.78023C4.02817 1.88128 3.97088 2.01695 3.96802 2.15888C3.96906 2.19456 3.97244 2.23023 3.97869 2.26565L4.01073 2.36148C4.02453 2.39456 4.04067 2.42659 4.05864 2.45758C4.08026 2.48544 4.10343 2.51227 4.12817 2.53753C4.17713 2.5857 4.23494 2.62372 4.29875 2.64951C4.36203 2.67945 4.4313 2.69404 4.50135 2.69221C4.53703 2.69143 4.57271 2.68779 4.60812 2.68154C4.67635 2.66669 4.74146 2.63961 4.80005 2.60159C4.82791 2.5818 4.85474 2.56044 4.88 2.53753C4.90448 2.51357 4.92609 2.48674 4.94406 2.45758C4.96385 2.42685 4.98156 2.39456 4.99745 2.36148C5.00864 2.33023 5.01776 2.2982 5.02401 2.26565C5.03286 2.23076 5.03651 2.19482 5.03469 2.15888C5.03573 2.08961 5.02297 2.0206 4.99745 1.95628C4.96828 1.89143 4.9287 1.83206 4.88 1.78023Z" fill="#383838"/>
<path d="M2.61877 4.04686C2.59325 4.02238 2.56668 3.9992 2.53856 3.97758C2.50783 3.95936 2.4758 3.94347 2.44272 3.92941L2.34663 3.89764C2.24272 3.87576 2.13465 3.88696 2.03726 3.92941C1.97137 3.95649 1.91147 3.99633 1.86147 4.04686C1.7646 4.14738 1.70939 4.28071 1.70679 4.42029C1.70757 4.45597 1.71121 4.49165 1.71746 4.5268C1.73231 4.59529 1.75939 4.66014 1.79741 4.71899L1.86147 4.79894C1.91304 4.84764 1.97241 4.88722 2.03726 4.91613C2.10184 4.94191 2.17059 4.95467 2.24012 4.95363C2.2758 4.95519 2.31174 4.9518 2.34663 4.94295C2.37944 4.93644 2.41147 4.92758 2.44272 4.91613C2.4758 4.9005 2.50783 4.88279 2.53856 4.86274C2.56799 4.84477 2.59481 4.82342 2.61877 4.79894C2.64168 4.77342 2.66304 4.74686 2.68257 4.71899C2.72085 4.66014 2.74793 4.59529 2.76278 4.5268C2.76877 4.49165 2.77241 4.45597 2.77345 4.42029C2.77528 4.35024 2.76069 4.28071 2.73075 4.21743C2.7047 4.15389 2.66668 4.09581 2.61877 4.04686Z" fill="#383838"/>
<path d="M4.88 4.04693C4.85474 4.02245 4.82791 3.99927 4.80005 3.97766C4.77088 3.95943 4.74067 3.94354 4.70942 3.92948C4.67739 3.91906 4.64015 3.90838 4.60812 3.89771C4.50422 3.87609 4.39614 3.88729 4.29875 3.92948C4.17036 3.98677 4.06776 4.08937 4.01073 4.2175C3.98338 4.28182 3.9688 4.35057 3.96802 4.42036C3.96906 4.45604 3.97244 4.49172 3.97869 4.52688C3.98937 4.55891 4.00005 4.59615 4.01073 4.62818C4.02453 4.65969 4.04067 4.6899 4.05864 4.71906C4.08026 4.74693 4.10343 4.77349 4.12817 4.79901C4.17687 4.84875 4.23468 4.88859 4.29875 4.9162C4.36307 4.94198 4.43208 4.95474 4.50135 4.9537C4.53729 4.95526 4.57323 4.95188 4.60812 4.94302C4.6425 4.93651 4.67635 4.92766 4.70942 4.9162C4.74067 4.90057 4.77114 4.8826 4.80005 4.86281C4.85812 4.82609 4.90734 4.77714 4.94406 4.71906C4.96385 4.6899 4.98156 4.65969 4.99745 4.62818C5.00864 4.5951 5.01776 4.56125 5.02401 4.52688C5.03286 4.49198 5.03651 4.45604 5.03469 4.42036C5.03573 4.35083 5.02297 4.28208 4.99745 4.2175C4.96958 4.1537 4.92974 4.09562 4.88 4.04693Z" fill="#383838"/>
<path d="M5.14144 3.49764C5.15732 3.52941 5.17347 3.55623 5.18935 3.58826C5.21097 3.61613 5.23414 3.64295 5.25862 3.66821C5.28154 3.69399 5.30862 3.71561 5.33857 3.73227C5.36696 3.75311 5.39743 3.77108 5.42946 3.78566C5.46253 3.79686 5.49638 3.80571 5.53076 3.81222C5.56383 3.82108 5.59795 3.82472 5.63206 3.8229C5.77399 3.8242 5.91045 3.76847 6.01071 3.66821C6.11201 3.56847 6.16774 3.43149 6.16539 3.28957C6.16722 3.25545 6.16357 3.22134 6.15472 3.18826C6.14899 3.15363 6.14013 3.11977 6.12815 3.08696C6.09899 3.02212 6.0594 2.96248 6.01071 2.91092C5.96175 2.86274 5.90368 2.82472 5.84013 2.79894C5.74274 2.75675 5.63466 2.74556 5.53076 2.76691C5.4956 2.77264 5.46149 2.78332 5.42946 2.79894C5.39664 2.80936 5.36591 2.82576 5.33857 2.84686C5.31201 2.86821 5.27998 2.88957 5.25862 2.91092C5.15914 3.0117 5.10368 3.1479 5.10394 3.28957C5.10315 3.32524 5.10498 3.36092 5.1094 3.39608C5.12008 3.42811 5.13076 3.46561 5.14144 3.49764Z" fill="#383838"/>
<path d="M6.38937 2.53746C6.41228 2.56324 6.43937 2.58485 6.46931 2.60152C6.49848 2.62131 6.52869 2.63902 6.55994 2.6549C6.59301 2.6661 6.62687 2.67522 6.6615 2.68147C6.69614 2.69032 6.73207 2.69397 6.76801 2.69214C6.90838 2.69344 7.04327 2.63772 7.14145 2.53746C7.19405 2.48902 7.23442 2.42886 7.25864 2.36141C7.28598 2.29735 7.30056 2.2286 7.30134 2.15881C7.29978 2.01662 7.24223 1.88042 7.14145 1.78016C7.09223 1.73199 7.03442 1.69397 6.97062 1.66818C6.87348 1.62548 6.76541 1.61428 6.6615 1.63615C6.59301 1.651 6.52791 1.67808 6.46931 1.7161C6.44275 1.73745 6.41072 1.75881 6.38937 1.78016C6.28989 1.88094 6.23442 2.01714 6.23468 2.15881C6.23364 2.22808 6.2464 2.29709 6.27192 2.36141C6.29848 2.42782 6.33832 2.48772 6.38937 2.53746Z" fill="#383838"/>
<path d="M3.86671 5.34827C3.85212 5.31624 3.83416 5.28603 3.81332 5.25765C3.79666 5.22744 3.77504 5.20035 3.74926 5.1777C3.724 5.15296 3.69744 5.12978 3.66931 5.10843C3.63728 5.09228 3.61072 5.0764 3.57869 5.06025C3.54666 5.04436 3.50942 5.0389 3.47738 5.02822C3.30108 4.99775 3.12087 5.05322 2.99197 5.1777C2.97061 5.19905 2.94926 5.23108 2.92817 5.25765C2.90681 5.28473 2.89067 5.31546 2.87999 5.34827C2.86462 5.3803 2.85395 5.41442 2.84796 5.44957C2.84197 5.48317 2.83832 5.51702 2.83728 5.55087C2.83754 5.62249 2.85212 5.69306 2.87999 5.75895C2.90577 5.82275 2.94405 5.88056 2.99197 5.92952C3.04379 5.97822 3.10317 6.01806 3.16801 6.04697C3.20082 6.05895 3.23494 6.0678 3.26931 6.07353C3.30238 6.08238 3.3365 6.08603 3.37061 6.08421C3.5128 6.08681 3.64978 6.03082 3.74926 5.92952C3.84978 5.82926 3.90551 5.6928 3.90395 5.55087C3.90577 5.51676 3.90212 5.48264 3.89327 5.44957C3.88702 5.4152 3.87817 5.38134 3.86671 5.34827Z" fill="#383838"/>
<path d="M2.73595 6.47882C2.72033 6.44757 2.70236 6.4171 2.68257 6.38819C2.66616 6.35799 2.64455 6.3309 2.61877 6.30825C2.56877 6.2572 2.50887 6.2171 2.44272 6.1908C2.24272 6.11163 2.01486 6.15773 1.86147 6.30825C1.84012 6.32934 1.81877 6.36137 1.79741 6.38819C1.75939 6.44679 1.73231 6.51189 1.71746 6.58012C1.71121 6.61528 1.70757 6.65095 1.70679 6.68689C1.70939 6.82621 1.7646 6.95955 1.86147 7.06007C1.96173 7.16111 2.09767 7.21866 2.24012 7.22022C2.30965 7.21918 2.37866 7.20486 2.44272 7.17752C2.50991 7.15304 2.57033 7.11293 2.61877 7.06007C2.71877 6.96189 2.77476 6.827 2.77345 6.68689C2.77502 6.65095 2.77163 6.61502 2.76278 6.58012C2.75627 6.54575 2.74741 6.51189 2.73595 6.47882Z" fill="#383838"/>
<path d="M6.76792 7.22047C6.83771 7.21942 6.90646 7.2051 6.97052 7.17776C7.09891 7.12047 7.20151 7.01786 7.25855 6.88974C7.28589 6.82567 7.30047 6.75666 7.30125 6.68713C7.30177 6.54416 7.24396 6.40744 7.14136 6.30849C7.01532 6.18349 6.83537 6.12958 6.66141 6.16448C6.62678 6.17073 6.59292 6.17958 6.55985 6.19104C6.52808 6.20692 6.50125 6.22307 6.46922 6.23895C6.41271 6.2814 6.36245 6.33166 6.32 6.38843C6.30386 6.42047 6.28797 6.44703 6.27183 6.47906C6.26063 6.51213 6.25178 6.54599 6.24526 6.58036C6.23641 6.61526 6.23276 6.65119 6.23459 6.68713C6.23329 6.82724 6.28901 6.96213 6.38928 7.06031C6.48849 7.16317 6.62521 7.22099 6.76792 7.22047Z" fill="#383838"/>
<path d="M7.52005 5.92931C7.56979 5.98035 7.62969 6.02046 7.69609 6.04676C7.76041 6.07254 7.82943 6.08504 7.8987 6.084C8.04036 6.08452 8.17656 6.02905 8.27734 5.92931C8.32552 5.88035 8.36354 5.82254 8.38932 5.75874C8.41667 5.69285 8.43125 5.62228 8.43203 5.55067C8.43099 5.41108 8.37552 5.27697 8.27734 5.17749C8.12318 5.02775 7.89609 4.98192 7.69609 5.06004C7.62969 5.08634 7.56979 5.12645 7.52005 5.17749C7.41979 5.27567 7.36406 5.41056 7.36536 5.55067C7.3638 5.62202 7.37656 5.69259 7.4026 5.75874C7.43047 5.8228 7.47031 5.88061 7.52005 5.92931Z" fill="#383838"/>
<path d="M8.82659 4.91622C8.89117 4.942 8.95992 4.95476 9.02945 4.95372C9.24377 4.95268 9.43674 4.82351 9.51929 4.62586C9.60185 4.42794 9.5581 4.20007 9.4081 4.04695C9.25393 3.89747 9.02685 3.85164 8.82659 3.9295C8.7594 3.95398 8.69898 3.99434 8.65081 4.04695C8.44403 4.25502 8.44403 4.59096 8.65081 4.79903C8.70055 4.85007 8.76044 4.88992 8.82659 4.91622Z" fill="#383838"/>
<path d="M31.6606 30.8651L29.2171 29.6555C28.3057 29.2086 27.7294 28.2805 27.7333 27.2657V26.8433C27.732 25.5026 27.014 24.2652 25.8507 23.599L22.9679 21.9532C23.1895 21.3662 23.0479 20.704 22.6052 20.2592L22.2164 19.8704C22.7119 19.2605 22.6893 18.3805 22.1632 17.7969L13.1583 7.8352L13.9312 7.06229C14.0312 6.96229 14.0875 6.82661 14.0875 6.68494C14.0875 6.54354 14.0312 6.40786 13.9312 6.30786L12.4229 4.79953C12.3229 4.69953 12.1872 4.64328 12.0458 4.64328C11.9427 4.64614 11.8424 4.67973 11.7583 4.73963C11.1619 1.86958 8.5385 -0.119745 5.61402 0.0805151C2.68954 0.280515 0.361413 2.60838 0.161413 5.53312C-0.0385868 8.4576 1.95074 11.081 4.82079 11.6774C4.76089 11.7615 4.7273 11.8615 4.72417 11.9649C4.72417 12.1063 4.78042 12.242 4.88042 12.342L6.38876 13.85C6.48876 13.9503 6.62443 14.0066 6.7661 14.0066C6.90777 14.0066 7.04345 13.9503 7.14345 13.85L7.91558 13.0774L17.8799 22.0836C18.4614 22.6146 19.345 22.6375 19.9531 22.137L20.3424 22.5263C20.8492 23.0368 21.6364 23.1415 22.2591 22.7813L25.3221 24.5303C26.1518 25.005 26.6645 25.887 26.6666 26.8433V27.2657C26.6614 28.6873 27.4695 29.9868 28.7466 30.6112L31.1903 31.8209C31.2638 31.8566 31.3445 31.8748 31.426 31.874C31.6757 31.8763 31.8934 31.7055 31.9502 31.4625C32.0073 31.2196 31.888 30.9696 31.6635 30.8607L31.6606 30.8651ZM2.61766 2.5365C3.95595 1.19796 5.95621 0.77114 7.72444 1.44666C9.49266 2.12192 10.6989 3.77348 10.8041 5.66359L10.5375 5.93025C10.7169 5.75031 10.7445 5.46906 10.6033 5.2576C10.4625 5.0464 10.1921 4.96385 9.95725 5.0602C9.8924 5.08937 9.83303 5.12895 9.78121 5.17765C9.68329 5.27713 9.62782 5.41124 9.62652 5.55083C9.6273 5.58676 9.63095 5.62244 9.6372 5.6576C9.64319 5.69275 9.65386 5.72687 9.66923 5.7589C9.6799 5.79171 9.69605 5.82244 9.7174 5.84952C9.73589 5.87817 9.75751 5.90499 9.78121 5.92947C9.88225 6.02947 10.0179 6.08676 10.1599 6.08963C10.3018 6.08755 10.4369 6.02999 10.5369 5.92947L9.40855 7.05812C9.50647 6.95838 9.56168 6.82452 9.56272 6.68468C9.56141 6.61333 9.54683 6.54301 9.52001 6.47687C9.49423 6.41307 9.45595 6.35525 9.40803 6.30604C9.25386 6.15656 9.02678 6.11072 8.82652 6.18885C8.76037 6.21515 8.70048 6.25525 8.65074 6.30604C8.60256 6.35525 8.56454 6.41307 8.5385 6.47687C8.51167 6.54301 8.49735 6.61333 8.49605 6.68468C8.49709 6.82452 8.55256 6.95838 8.65074 7.05812C8.69891 7.11072 8.75933 7.15109 8.82652 7.17557C8.89084 7.20291 8.95959 7.21723 9.02938 7.21801C9.17131 7.21619 9.30673 7.1589 9.40699 7.05812L8.28693 8.17817C8.37678 8.07895 8.42808 7.95057 8.43095 7.81645C8.43016 7.74692 8.41558 7.67791 8.38824 7.61385C8.36376 7.54796 8.32548 7.48807 8.27626 7.43781C8.22313 7.39093 8.16402 7.35135 8.10022 7.32062C7.97027 7.26723 7.8247 7.26723 7.69501 7.32062C7.56193 7.37531 7.45621 7.48077 7.40152 7.61385C7.35178 7.74432 7.35178 7.88859 7.40152 8.01932C7.43251 8.08286 7.47183 8.14223 7.51897 8.1951C7.56897 8.24458 7.62886 8.2826 7.69501 8.30708C7.75907 8.33442 7.82782 8.349 7.89761 8.34979C8.03147 8.34692 8.15985 8.29588 8.25907 8.20578L7.13928 9.32583C7.2398 9.22583 7.29735 9.09015 7.29917 8.94822C7.29839 8.87869 7.28381 8.80968 7.25647 8.74562C7.23199 8.67843 7.19188 8.61801 7.13928 8.56958C6.92964 8.36619 6.59657 8.36619 6.3872 8.56958C6.33615 8.61932 6.29631 8.67947 6.26975 8.74562C6.24423 8.80994 6.23147 8.87895 6.23251 8.94822C6.23199 9.08989 6.28772 9.22609 6.3872 9.32687C6.43615 9.37505 6.49423 9.41307 6.55777 9.43885C6.62391 9.46593 6.69449 9.48025 6.76584 9.48156C6.90568 9.48078 7.03954 9.42557 7.13928 9.32739L6.01063 10.456C6.11115 10.356 6.16845 10.2206 6.17053 10.079C6.16792 9.93676 6.11063 9.80135 6.01063 9.70031C5.98615 9.67635 5.95933 9.65499 5.93069 9.63624C5.90334 9.61515 5.87261 9.599 5.84006 9.58833C5.80777 9.5727 5.77365 9.56203 5.7385 9.5563C5.5648 9.52374 5.38589 9.57739 5.25855 9.70031C5.20985 9.75187 5.17027 9.8115 5.14136 9.87635C5.11402 9.94041 5.09943 10.0092 5.09865 10.079C5.09761 10.2951 5.22704 10.4904 5.42652 10.5737C5.62626 10.6568 5.85621 10.6115 6.00907 10.4586L5.7424 10.7253C3.85178 10.6198 2.19996 9.41307 1.52496 7.64406C0.849955 5.87505 1.27782 3.87453 2.61766 2.5365ZM6.76636 12.7191L6.01167 11.9649L12.0458 5.93078L12.8 6.6852L12.0458 7.43885L6.76636 12.7191ZM18.5953 21.2922L8.67079 12.3222L12.4041 8.58885L21.3734 18.5141C21.5638 18.725 21.5557 19.0482 21.3546 19.249L19.3281 21.2758C19.1268 21.4748 18.8052 21.4821 18.5953 21.2922ZM21.0966 21.7722L20.7195 21.3951L21.4742 20.6404L21.8507 21.0175C22.0591 21.2258 22.0591 21.5636 21.851 21.7719C21.6427 21.9805 21.3049 21.9805 21.0966 21.7722Z" fill="#383838"/>
<path d="M31.7782 2.15308C31.6394 2.05282 31.4607 2.02548 31.2982 2.07938L24.8982 4.21272C24.6802 4.28537 24.5334 4.48928 24.5334 4.71897V9.28199C24.2105 9.09006 23.8422 8.98772 23.4667 8.98563C22.2886 8.98563 21.3334 9.94058 21.3334 11.119C21.3334 12.2971 22.2886 13.2523 23.4667 13.2523C24.6448 13.2523 25.6 12.2971 25.6 11.119V5.10334L30.9334 3.32522V7.14865C30.6105 6.95673 30.2422 6.85438 29.8667 6.8523C28.6886 6.8523 27.7334 7.80725 27.7334 8.98563C27.7334 10.1638 28.6886 11.119 29.8667 11.119C31.0448 11.119 32 10.1638 32 8.98563V2.58563C32 2.41402 31.9172 2.25308 31.7782 2.15308ZM23.4667 12.1856C22.8776 12.1856 22.4 11.708 22.4 11.119C22.4 10.5296 22.8776 10.0523 23.4667 10.0523C24.0558 10.0523 24.5334 10.5296 24.5334 11.119C24.5334 11.708 24.0558 12.1856 23.4667 12.1856ZM29.8667 10.0523C29.2776 10.0523 28.8 9.57469 28.8 8.98563C28.8 8.39631 29.2776 7.91897 29.8667 7.91897C30.4558 7.91897 30.9334 8.39631 30.9334 8.98563C30.9334 9.57469 30.4558 10.0523 29.8667 10.0523Z" fill="#383838"/>
<path d="M11.0534 19.6731L3.58672 21.8064C3.35781 21.872 3.2 22.0811 3.2 22.3192V27.9488C2.87708 27.7569 2.50885 27.6546 2.13333 27.6525C0.955208 27.6525 0 28.6074 0 29.7858C0 30.964 0.955208 31.9192 2.13333 31.9192C3.31146 31.9192 4.26667 30.964 4.26667 29.7858V24.8556L10.6667 23.0389V25.8155C10.3438 25.6236 9.97552 25.5212 9.6 25.5192C8.42188 25.5192 7.46667 26.4741 7.46667 27.6525C7.46667 28.8306 8.42188 29.7858 9.6 29.7858C10.7781 29.7858 11.7333 28.8306 11.7333 27.6525V20.1858C11.7333 20.0184 11.6547 19.8608 11.5211 19.76C11.3875 19.6593 11.2143 19.6272 11.0534 19.6731ZM2.13333 30.8525C1.54427 30.8525 1.06667 30.3749 1.06667 29.7858C1.06667 29.1965 1.54427 28.7192 2.13333 28.7192C2.7224 28.7192 3.2 29.1965 3.2 29.7858C3.2 30.3749 2.7224 30.8525 2.13333 30.8525ZM4.26667 23.7468V22.7212L10.6667 20.8929V21.9309L4.26667 23.7468ZM9.6 28.7192C9.01094 28.7192 8.53333 28.2416 8.53333 27.6525C8.53333 27.0632 9.01094 26.5858 9.6 26.5858C10.1891 26.5858 10.6667 27.0632 10.6667 27.6525C10.6667 28.2416 10.1891 28.7192 9.6 28.7192Z" fill="#383838"/>
</g>
<defs>
<clipPath id="clip0">
<rect width="32" height="32" fill="white"/>
</clipPath>
</defs>
</svg>
