<svg width="32" height="32" viewBox="0 0 32 32" fill="none" xmlns="http://www.w3.org/2000/svg">
<g clip-path="url(#clip0)">
<path d="M8.07422 22.9512C7.875 23.1504 7.875 23.4745 8.07422 23.6737C8.27345 23.8729 8.59755 23.8729 8.79677 23.6737C8.996 23.4745 8.996 23.1504 8.79677 22.9512C8.59755 22.752 8.27345 22.752 8.07422 22.9512Z" fill="#383838"/>
<path d="M5.99585 25.0293C5.79663 25.2285 5.79663 25.5526 5.99585 25.7518C6.19508 25.9511 6.51918 25.9511 6.7184 25.7518C6.91763 25.5526 6.91763 25.2285 6.7184 25.0293C6.51918 24.8301 6.19501 24.8301 5.99585 25.0293Z" fill="#383838"/>
<path d="M28.9211 0.149589C28.8253 0.0537894 28.6954 0 28.56 0C28.4246 0 28.2947 0.0537894 28.1989 0.149589L8.19838 20.1501C8.19736 20.151 8.19641 20.152 8.19545 20.153C8.1945 20.1539 8.19355 20.1549 8.19259 20.1559L1.96112 26.3874C1.4762 26.8722 1.20923 27.5191 1.20923 28.2087C1.20923 28.8983 1.47627 29.5451 1.96112 30.03L3.17799 31.2469C3.68014 31.749 4.3397 32.0001 4.99927 32.0001C5.65891 32.0001 6.31847 31.749 6.82062 31.2469L7.79407 30.2734C7.88987 30.1776 7.94366 30.0477 7.94366 29.9123C7.94366 29.7769 7.88987 29.647 7.79407 29.5512C7.50048 29.2576 7.33877 28.8673 7.33877 28.4521C7.33877 28.0369 7.50048 27.6465 7.79407 27.3529L10.1351 25.0119C10.3346 24.8124 10.3346 24.4891 10.1351 24.2897C9.93571 24.0903 9.61236 24.0903 9.413 24.2897L7.07193 26.6308C6.58545 27.1173 6.31752 27.7641 6.31752 28.4521C6.31752 28.9666 6.46738 29.4581 6.74641 29.8767L6.09841 30.5247C5.49236 31.1309 4.50618 31.1307 3.90013 30.5247L2.68326 29.3079C2.3913 29.0158 2.23048 28.6256 2.23048 28.2087C2.23048 27.7918 2.3913 27.4016 2.68326 27.1095L8.55652 21.2363L13.696 26.3757C13.7967 26.4764 13.9353 26.5306 14.0772 26.5249C14.2195 26.5193 14.353 26.4546 14.4454 26.3463L29.2898 8.96377C30.8586 7.12669 31.8264 3.0549 28.9211 0.149589ZM28.5132 8.30052L14.0276 25.263L9.27873 20.5141L28.5442 1.2486C30.5658 3.66224 29.7683 6.83078 28.5132 8.30052Z" fill="#383838"/>
<path d="M28.645 3.70375C28.5845 3.42834 28.3121 3.2541 28.0367 3.31443C27.7612 3.37489 27.5869 3.64717 27.6473 3.92266C27.933 5.2247 27.3772 6.48535 26.9598 6.97408L13.5506 22.6762C13.3674 22.8906 13.3928 23.213 13.6073 23.3961C13.7035 23.4783 13.8213 23.5185 13.9387 23.5185C14.0829 23.5185 14.2262 23.4577 14.3272 23.3395L27.7365 7.63739C28.4153 6.84254 28.9891 5.27257 28.645 3.70375Z" fill="#383838"/>
</g>
<defs>
<clipPath id="clip0">
<rect width="32" height="32" fill="white"/>
</clipPath>
</defs>
</svg>
