<svg width="30" height="27" viewBox="0 0 30 27" fill="none" xmlns="http://www.w3.org/2000/svg">
<path d="M28.2422 10.2697C27.2729 10.2697 26.4844 11.0583 26.4844 12.0275V12.3205C26.4844 14.7778 24.6952 16.8237 22.3515 17.2273C22.6576 16.7759 22.8366 16.2316 22.8366 15.6462V15.2392C22.8366 13.6818 21.5695 12.4148 20.0121 12.4148C18.4547 12.4148 17.1877 13.6818 17.1877 15.2392V15.6462C17.1877 16.2167 17.3582 16.7478 17.6501 17.1923C15.3984 16.715 13.7034 14.7123 13.7034 12.3205V12.0275C13.7034 11.0583 12.9149 10.2697 11.9456 10.2697C10.9764 10.2697 10.1878 11.0583 10.1878 12.0275V12.3205C10.1878 13.5098 10.4298 14.6599 10.8967 15.7225H7.01678H6.90979V9.82166C6.90979 9.5601 6.73646 9.33018 6.48498 9.25834C3.35672 8.36367 1.17188 5.46732 1.17188 2.21484V1.92188C1.17188 1.59879 1.43473 1.33594 1.75781 1.33594C2.0809 1.33594 2.34375 1.59879 2.34375 1.92188V2.21484C2.34375 5.60725 5.10369 8.36719 8.49609 8.36719H11.316C14.7084 8.36719 17.4684 5.60725 17.4684 2.21484V1.92188C17.4684 1.59879 17.7312 1.33594 18.0543 1.33594C18.3774 1.33594 18.6403 1.59879 18.6403 1.92188V2.21484C18.6403 3.11549 18.478 3.99527 18.158 4.82959C18.0421 5.1317 18.1931 5.47061 18.4952 5.5865C18.7972 5.70246 19.1362 5.55135 19.2521 5.24924C19.6238 4.28045 19.8121 3.25951 19.8121 2.21484V1.92188C19.8121 0.952617 19.0236 0.164062 18.0543 0.164062C17.0851 0.164062 16.2965 0.952617 16.2965 1.92188V2.21484C16.2965 4.67203 14.5073 6.71795 12.1637 7.12166C12.4697 6.6702 12.6487 6.12598 12.6487 5.54068V5.13369C12.6487 3.57627 11.3817 2.30918 9.82424 2.30918C8.26682 2.30918 6.99978 3.57627 6.99978 5.13369V5.54068C6.99978 6.11109 7.17029 6.64219 7.46227 7.08668C5.21057 6.60938 3.51562 4.60664 3.51562 2.21484V1.92188C3.51562 0.952617 2.72707 0.164062 1.75781 0.164062C0.788555 0.164062 0 0.952617 0 1.92188V2.21484C0 4.09605 0.604805 5.87977 1.74896 7.37303C2.76521 8.6993 4.16941 9.70945 5.73797 10.251V16.3084C5.73797 16.632 6.00029 16.8943 6.32391 16.8943H6.4309V26.4141C6.4309 26.7376 6.69322 27 7.01684 27C7.34045 27 7.60277 26.7376 7.60277 26.4141V16.8943H11.5262C11.6543 17.0935 11.7911 17.2884 11.9368 17.4786C11.9756 17.5293 12.016 17.5785 12.0559 17.6282V26.4141C12.0559 26.7376 12.3182 27 12.6418 27C12.9654 27 13.2278 26.7376 13.2278 26.4141V18.8256C14.0261 19.4947 14.9437 20.0175 15.9258 20.3566V26.4141C15.9258 26.7376 16.1882 27 16.5118 27C16.8354 27 17.0977 26.7376 17.0977 26.4141V19.9273C17.0977 19.6657 16.9244 19.4358 16.6729 19.3639C13.5446 18.4693 11.3597 15.573 11.3597 12.3205V12.0275C11.3597 11.7044 11.6226 11.4416 11.9457 11.4416C12.2688 11.4416 12.5316 11.7044 12.5316 12.0275V12.3205C12.5316 15.7129 15.2916 18.4729 18.684 18.4729H21.5039C24.8963 18.4729 27.6562 15.7129 27.6562 12.3205V12.0275C27.6562 11.7044 27.9191 11.4416 28.2422 11.4416C28.5653 11.4416 28.8281 11.7044 28.8281 12.0275V12.3205C28.8281 15.633 26.5927 18.5435 23.3919 19.3981C23.1355 19.4665 22.9571 19.6988 22.9571 19.9642V24.207C22.9571 24.5306 23.2195 24.7929 23.5431 24.7929C23.8667 24.7929 24.129 24.5306 24.129 24.207V20.4018C27.608 19.2715 30 16.0113 30 12.3205V12.0275C30 11.0583 29.2114 10.2697 28.2422 10.2697ZM8.17166 5.13363C8.17166 4.22232 8.91299 3.481 9.82424 3.481C10.7355 3.481 11.4769 4.22232 11.4769 5.13363V5.54062C11.4769 6.45187 10.7355 7.1932 9.82424 7.1932C8.91299 7.1932 8.17166 6.45187 8.17166 5.54062V5.13363ZM21.6647 15.6462C21.6647 16.5575 20.9234 17.2988 20.0121 17.2988C19.1009 17.2988 18.3595 16.5575 18.3595 15.6462V15.2392C18.3595 14.328 19.1009 13.5867 20.0121 13.5867C20.9234 13.5867 21.6647 14.328 21.6647 15.2392V15.6462Z" fill="#FFD858"/>
</svg>
