<svg width="32" height="32" viewBox="0 0 32 32" fill="none" xmlns="http://www.w3.org/2000/svg">
<g clip-path="url(#clip0)">
<path d="M0.0530643 17.7067C0.140148 17.5293 0.320675 17.4168 0.518343 17.4168H7.21954C7.31416 16.6166 7.62449 15.8819 8.09129 15.2724L1.22849 7.16295C1.04354 6.94441 1.07077 6.61736 1.28931 6.43241C1.50785 6.24746 1.83497 6.27476 2.01986 6.49323L8.8174 14.5256C9.38822 14.0628 10.077 13.7407 10.831 13.6111L6.12062 2.09693C6.01225 1.83195 6.13915 1.52929 6.40413 1.42092C6.66912 1.31255 6.97177 1.43945 7.08014 1.70443L11.931 13.5621C12.9735 13.6458 13.914 14.095 14.6243 14.7817C15.772 12.6688 17.9828 11.3348 20.4233 11.3348C23.8884 11.3348 26.7382 14.0188 27.0035 17.4169H31.4816C31.6793 17.4169 31.8598 17.5294 31.9469 17.7068C32.0341 17.8842 32.0127 18.0958 31.8918 18.2522L22.8242 29.9866C22.5189 30.3817 22.0384 30.6177 21.539 30.6177H10.4609C9.96145 30.6177 9.48104 30.3817 9.17569 29.9866L0.108149 18.2522C-0.0127335 18.0958 -0.0340881 17.8842 0.0530643 17.7067ZM8.78139 16.0879C8.52076 16.481 8.34044 16.9317 8.26483 17.4168H9.46238C9.49403 17.2878 9.5373 17.1634 9.59086 17.0445L8.78139 16.0879ZM11.5787 14.5832C11.578 14.5832 11.5775 14.5833 11.5769 14.5833C11.5764 14.5833 11.5759 14.5832 11.5755 14.5832C10.7862 14.5835 10.0604 14.8586 9.48712 15.317L10.2461 16.2138C10.6143 15.9285 11.0759 15.7581 11.5767 15.7581C12.5985 15.7581 13.4577 16.4659 13.6909 17.4168H14.8885C14.6386 15.8144 13.2498 14.5842 11.5787 14.5832ZM10.9171 17.0066L11.2642 17.4168H12.5912C12.402 17.0482 12.0188 16.7948 11.5767 16.7948C11.3309 16.7948 11.1035 16.8738 10.9171 17.0066ZM20.4233 12.3715C18.2161 12.3715 16.2318 13.6657 15.3381 15.6766C15.6514 16.1966 15.8593 16.7865 15.9338 17.4168H16.0662C16.3236 15.2404 18.1788 13.5464 20.4233 13.5464C22.6678 13.5464 24.523 15.2404 24.7804 17.4168H25.962C25.6996 14.5912 23.3163 12.3715 20.4233 12.3715ZM20.4233 15.7581C21.4452 15.7581 22.3043 16.4659 22.5376 17.4168H23.7351C23.4852 15.8138 22.0954 14.5832 20.4233 14.5832C18.7512 14.5832 17.3614 15.8138 17.1115 17.4168H18.309C18.5422 16.4659 19.4015 15.7581 20.4233 15.7581ZM19.4088 17.4168H21.4378C21.2487 17.0482 20.8654 16.7948 20.4234 16.7948C19.9813 16.7948 19.5979 17.0482 19.4088 17.4168ZM9.99608 29.3527C10.1065 29.4956 10.2803 29.581 10.4609 29.581H21.5391C21.7197 29.581 21.8934 29.4957 22.004 29.3527L30.426 18.4536H1.574L9.99608 29.3527Z" fill="#383838"/>
<path d="M17.0713 8.53779C17.0713 9.41036 16.7017 9.87198 16.4047 10.243C16.1497 10.5615 15.9655 10.7916 15.9655 11.3002C15.9655 11.5865 15.7334 11.8186 15.4471 11.8186C15.1608 11.8186 14.9287 11.5865 14.9287 11.3002C14.9287 10.4277 15.2984 9.96597 15.5954 9.59504C15.8504 9.27656 16.0346 9.04648 16.0346 8.53779C16.0346 8.02842 15.8502 7.79799 15.5952 7.47917C15.2983 7.10795 14.9287 6.64599 14.9287 5.77294C14.9287 4.89954 15.2982 4.4373 15.5951 4.06588C15.8502 3.74671 16.0346 3.51608 16.0346 3.00615C16.0346 2.71988 16.2667 2.48779 16.5529 2.48779C16.8392 2.48779 17.0713 2.71988 17.0713 3.00615C17.0713 3.87955 16.7018 4.34179 16.4049 4.71321C16.1498 5.03238 15.9655 5.26295 15.9655 5.77294C15.9655 6.28231 16.1498 6.51274 16.4048 6.83157C16.7017 7.20278 17.0713 7.66474 17.0713 8.53779Z" fill="#383838"/>
<path d="M14.2731 9.05553C14.1086 9.05553 13.9619 8.97874 13.8668 8.8591C13.4927 8.39148 12.717 7.41993 12.717 5.77287C12.717 5.10384 12.8456 4.47317 13.0993 3.89827C13.2149 3.6364 13.5209 3.5178 13.7828 3.63336C14.0448 3.74892 14.1633 4.05496 14.0478 4.3169C13.8527 4.75903 13.7537 5.24891 13.7537 5.77287C13.7537 7.05245 14.327 7.7747 14.6731 8.20749C14.7471 8.29706 14.7915 8.41193 14.7915 8.53724C14.7915 8.82344 14.5594 9.05553 14.2731 9.05553Z" fill="#383838"/>
<path d="M18.4311 10.7091C18.3617 10.7091 18.2912 10.6951 18.2235 10.6655C17.9613 10.5506 17.8418 10.245 17.9566 9.98274C18.1488 9.54372 18.2462 9.05757 18.2462 8.53776C18.2462 7.25292 17.6679 6.52992 17.3223 6.09774C17.3129 6.08606 17.3041 6.07397 17.2958 6.06153C17.1797 5.88743 17.1802 5.65707 17.2963 5.48297C17.4551 5.24473 17.777 5.18039 18.0151 5.33921C18.0765 5.38013 18.1263 5.43182 18.1637 5.49016C18.5479 5.97154 19.283 6.93479 19.283 8.53776C19.283 9.20161 19.1562 9.82764 18.9062 10.3985C18.821 10.5932 18.6308 10.7091 18.4311 10.7091Z" fill="#383838"/>
</g>
<defs>
<clipPath id="clip0">
<rect width="32" height="32" fill="white" transform="matrix(-1 0 0 1 32 0)"/>
</clipPath>
</defs>
</svg>
