<svg width="70" height="70" viewBox="0 0 70 70" fill="none" xmlns="http://www.w3.org/2000/svg">
<g clip-path="url(#clip0)">
<path d="M69.9958 18.8954C69.9452 18.3313 69.4457 17.9143 68.883 17.9655C59.0832 18.8432 46.9937 17.7244 34.8409 14.8148C22.6885 11.9056 11.4028 7.42814 3.06293 2.2075C2.58305 1.90726 1.95017 2.05273 1.6498 2.53262C1.34929 3.01264 1.49476 3.64538 1.97478 3.94589C2.78799 4.45504 3.62841 4.95707 4.49412 5.45145C3.86521 6.96384 3.24723 8.48936 2.64635 9.97223C1.83068 11.9857 0.987117 14.0678 0.122091 16.1026C-0.10459 16.6354 -0.0114843 17.25 0.365042 17.7062C0.759069 18.1836 1.37814 18.4 1.97888 18.2714C2.95096 18.0644 3.87368 17.8307 4.76605 17.6047C5.17772 17.5004 5.60086 17.3934 6.03071 17.2884C6.30853 17.7207 6.5765 18.1538 6.83708 18.5749C7.29017 19.3072 7.75885 20.0646 8.28221 20.8238C8.59175 21.2738 9.0972 21.5352 9.63587 21.5352C9.70437 21.5352 9.77355 21.5309 9.84287 21.5223C10.4298 21.4493 10.9195 21.0664 11.1209 20.5232C11.8488 18.5592 12.6281 16.5668 13.3817 14.6403L13.8758 13.3763C14.0817 12.8488 13.821 12.2541 13.2934 12.0482C12.7658 11.8424 12.1712 12.1031 11.9654 12.6307L11.472 13.8932C10.8216 15.5557 10.1523 17.267 9.51091 18.9726C9.19482 18.4874 8.8939 18.0011 8.58122 17.4956C8.26458 16.9839 7.93713 16.4547 7.5874 15.9187C7.21088 15.3434 6.50841 15.0639 5.83889 15.2246C5.29748 15.3546 4.77138 15.4878 4.26279 15.6166C3.6161 15.7804 2.99471 15.9377 2.35527 16.0863C3.10559 14.3002 3.83677 12.4953 4.54703 10.7422C5.1177 9.33347 5.70409 7.88629 6.29923 6.45142C10.4804 8.69964 15.1811 10.7703 20.2161 12.5899C19.7828 14.0042 19.3616 15.429 18.9517 16.8151C18.3853 18.7305 17.7996 20.711 17.188 22.6455C17.0131 23.1984 17.1648 23.8014 17.5835 24.2197C18.0212 24.6565 18.6573 24.8122 19.2424 24.6257C20.1563 24.3363 21.0207 24.0217 21.8567 23.7174C22.2851 23.5615 22.7256 23.4011 23.1733 23.2439C23.4805 23.6344 23.7786 24.0247 24.0684 24.4041C24.5975 25.0967 25.1446 25.813 25.7463 26.5297C26.0622 26.9072 26.5224 27.1169 27.0028 27.1169C27.1227 27.1169 27.2442 27.1038 27.3647 27.077C27.9425 26.9485 28.3937 26.5204 28.5423 25.9598C29.0557 24.0246 29.6167 22.0609 30.1592 20.162C30.5444 18.8132 30.9404 17.4273 31.3214 16.0441C32.3288 16.3097 33.3432 16.5651 34.3634 16.8093C35.4171 17.0616 36.4704 17.3005 37.5221 17.5263C37.2192 19.0037 36.9305 20.4914 36.6495 21.9392C36.2733 23.8783 35.884 25.8831 35.4653 27.8414C35.344 28.4083 35.5523 28.9945 36.0093 29.3707C36.4863 29.7636 37.1342 29.8576 37.6988 29.6164C38.5609 29.2494 39.3727 28.8588 40.1579 28.4809C40.5886 28.2735 41.0314 28.0605 41.482 27.8515C41.8101 28.1945 42.1299 28.5366 42.4408 28.8691C43.0487 29.5192 43.6771 30.1914 44.3601 30.8625C44.6724 31.1702 45.0855 31.3346 45.5101 31.3346C45.6815 31.3346 45.8547 31.3078 46.024 31.2527C46.5867 31.0696 46.9951 30.6004 47.0896 30.0285C47.4202 28.027 47.7949 25.9965 48.1574 24.0328C48.4333 22.5373 48.7171 20.9996 48.983 19.4659C50.879 19.6992 52.7513 19.8845 54.591 20.0214C54.3997 21.7647 54.2288 23.5224 54.0626 25.2318C53.8627 27.2889 53.6558 29.416 53.4155 31.4945C53.349 32.0701 53.6123 32.6333 54.1026 32.9643C54.6153 33.3102 55.2697 33.3426 55.8093 33.0486C56.6211 32.608 57.382 32.1449 58.118 31.697C58.541 31.4394 58.976 31.1747 59.4188 30.9154C59.7543 31.2036 60.0825 31.4903 60.4017 31.7692C61.0954 32.3753 61.8127 33.0019 62.5853 33.6261C62.8836 33.8677 63.2484 33.9927 63.6182 33.9927C63.8419 33.9927 64.0673 33.947 64.2811 33.8538C64.8234 33.6175 65.1846 33.1119 65.224 32.5343C65.3742 30.3294 65.5654 28.0924 65.7502 25.9289C65.9103 24.0553 66.075 22.1268 66.2144 20.2058C67.1837 20.1574 68.1349 20.0917 69.0658 20.0081C69.63 19.9577 70.0463 19.4593 69.9958 18.8954ZM28.1873 19.5987C27.7225 21.2256 27.2442 22.9 26.7919 24.5695C26.4214 24.106 26.0667 23.6419 25.6981 23.1593C25.3443 22.6961 24.9784 22.2171 24.5918 21.7319C24.1622 21.1943 23.4365 20.9831 22.7848 21.2077C22.2235 21.4016 21.6805 21.5992 21.1552 21.7903C20.5636 22.0056 19.9947 22.2127 19.4102 22.4117C19.9312 20.7349 20.4317 19.0419 20.9183 17.3968C21.3189 16.0422 21.7304 14.6506 22.1522 13.2717C24.4898 14.0733 26.8924 14.8204 29.3423 15.5064C28.9644 16.8782 28.5706 18.2569 28.1873 19.5987ZM46.1406 23.6607C45.8293 25.3475 45.5091 27.083 45.2141 28.8134C44.7831 28.3714 44.3693 27.9289 43.939 27.4685C43.5574 27.0606 43.163 26.6386 42.7497 26.2108C42.2708 25.7166 41.5282 25.5758 40.901 25.8614C40.3375 26.1184 39.7942 26.38 39.2687 26.6329C38.7218 26.8961 38.1958 27.1492 37.6556 27.3946C38.0087 25.7009 38.3403 23.9912 38.6629 22.3299C38.9426 20.8888 39.23 19.4078 39.5305 17.9413C42.024 18.4371 44.5027 18.8567 46.9481 19.1985C46.688 20.6945 46.4106 22.1978 46.1406 23.6607ZM63.7069 25.7543C63.546 27.6378 63.3803 29.5773 63.2404 31.5085C62.7374 31.0863 62.2541 30.6641 61.7511 30.2247C61.3564 29.8799 60.9482 29.5233 60.5237 29.1615C59.9998 28.7162 59.2475 28.6472 58.6502 28.9904C58.0973 29.3089 57.5659 29.6323 57.0519 29.9451C56.544 30.2542 56.0554 30.5516 55.5534 30.8413C55.7537 29.0322 55.9313 27.2051 56.1038 25.4302C56.2722 23.6977 56.4456 21.9151 56.6396 20.1543C58.4801 20.256 60.2835 20.3074 62.0404 20.3074C62.7523 20.3074 63.4566 20.2989 64.1528 20.282C64.0177 22.1164 63.8602 23.9606 63.7069 25.7543Z" fill="white"/>
<path d="M67.6765 35.7242C59.3031 40.7969 48.009 45.0872 35.875 47.8049C23.741 50.5226 11.6961 51.4599 1.95879 50.4433C1.39633 50.3838 0.891286 50.7934 0.832496 51.3569C0.773707 51.92 1.18264 52.4244 1.74592 52.4832C2.10864 52.521 2.4745 52.5562 2.8431 52.5887C4.62046 56.9427 6.57227 61.302 8.64836 65.554C9.00643 66.2872 9.72899 66.7377 10.5417 66.7377C10.5566 66.7377 10.5716 66.7374 10.5865 66.7371C11.4173 66.7203 12.1409 66.2372 12.4749 65.4762C14.3259 61.2591 16.0563 56.9332 17.6216 52.6096C18.6639 52.5336 19.7161 52.4425 20.7765 52.3363C23.0612 56.319 25.5078 60.2789 28.0536 64.1143C28.4515 64.714 29.1008 65.0578 29.801 65.0578C29.9109 65.0578 30.022 65.0493 30.1336 65.0321C30.9564 64.9046 31.6096 64.3283 31.8385 63.5277C33.1081 59.0871 34.2441 54.555 35.2171 50.0487C35.5857 49.9694 35.9545 49.8883 36.3232 49.8058C36.9656 49.6619 37.6059 49.5136 38.2436 49.361C41.0486 53.0257 44.0115 56.6431 47.0553 60.1196C47.4652 60.5878 48.0361 60.8415 48.6318 60.8415C48.8332 60.8415 49.0373 60.8124 49.239 60.7529C50.0343 60.5182 50.6037 59.8645 50.7273 59.0454C50.7277 59.0421 50.7283 59.0387 50.7288 59.0354C51.4007 54.4449 51.9276 49.7806 52.2958 45.1644C57.5316 43.2633 62.3742 41.0876 66.6051 38.72C66.8232 43.1262 66.9035 47.5983 66.8433 52.0325C66.843 52.0525 66.8429 52.0696 66.809 52.0849C66.7748 52.1003 66.7619 52.0887 66.7468 52.0756C64.1186 49.7869 61.5078 47.3938 58.9867 44.9627C58.5788 44.5695 57.9297 44.5814 57.5368 44.9891C57.1437 45.3968 57.1555 46.0458 57.5632 46.439C60.1094 48.8941 62.7461 51.3109 65.3999 53.6222C65.7948 53.966 66.2823 54.144 66.7788 54.144C67.0703 54.144 67.3652 54.0825 67.6457 53.9571C68.4044 53.6181 68.8826 52.8911 68.8938 52.0601C68.9592 47.2285 68.8596 42.3523 68.5982 37.5629C68.6451 37.5346 68.692 37.5065 68.7386 37.4782C69.2229 37.1847 69.3778 36.5541 69.0843 36.0698C68.7914 35.5857 68.1609 35.4308 67.6765 35.7242ZM10.597 64.652C10.589 64.6702 10.5821 64.6861 10.5449 64.6868C10.5064 64.6866 10.5001 64.672 10.4913 64.6541C8.58465 60.7492 6.78405 56.7532 5.12892 52.755C6.73209 52.8472 8.38422 52.8932 10.0776 52.8932C11.808 52.8932 13.5809 52.8453 15.3877 52.7502C13.919 56.7514 12.3104 60.7487 10.597 64.652ZM29.8669 62.9641C29.8614 62.9834 29.8566 63 29.8198 63.0057C29.7826 63.0118 29.7734 62.997 29.7623 62.9802C27.4067 59.4314 25.1369 55.7747 23.0034 52.0927C26.291 51.7026 29.645 51.1716 33.0189 50.5032C32.0995 54.6726 31.0409 58.8578 29.8669 62.9641ZM48.7008 58.7315C48.7006 58.7341 48.7002 58.7364 48.6997 58.7389C48.6969 58.7587 48.6943 58.7758 48.6587 58.7863C48.6226 58.7969 48.6114 58.7837 48.5983 58.7688C45.7801 55.5502 43.0322 52.2094 40.4164 48.8226C43.7663 47.9626 47.0348 46.9867 50.177 45.9116C49.8174 50.1828 49.3217 54.4888 48.7008 58.7315Z" fill="white"/>
<path d="M64.3352 61.6763L62.2699 60.5731L62.6201 58.2578C62.7063 57.6877 62.4202 57.1266 61.908 56.8616C61.3957 56.5965 60.7724 56.6872 60.357 57.0869L58.6696 58.7102L56.5759 57.6617L56.5757 57.6615C56.0602 57.4038 55.4382 57.5023 55.0281 57.9075C54.6179 58.3126 54.5113 58.9333 54.7631 59.4523L55.7855 61.5589L54.1414 63.2259C53.7366 63.6364 53.6382 64.2585 53.8966 64.7739C54.1551 65.2894 54.7122 65.5833 55.284 65.5035L57.6033 65.182L58.6809 67.261C58.9146 67.7119 59.378 67.9872 59.8746 67.9872C59.9419 67.9872 60.0097 67.9823 60.0776 67.9719C60.6476 67.8852 61.0988 67.4456 61.1998 66.8779L61.6109 64.5728L63.9209 64.1904C64.4898 64.0964 64.9351 63.6508 65.0289 63.0818C65.1227 62.5127 64.8439 61.948 64.3352 61.6763ZM60.7841 62.631C60.2231 62.7241 59.7792 63.1626 59.6795 63.7222L59.5455 64.4732L59.1947 63.7964C58.9617 63.3465 58.4966 63.0697 57.9991 63.0697C57.9381 63.0697 57.8767 63.0738 57.8152 63.0824L57.0598 63.1872L57.5954 62.6441C57.9946 62.2392 58.0962 61.6234 57.8478 61.1118L57.5147 60.4255L58.1965 60.7668C58.7044 61.0216 59.3214 60.928 59.732 60.5337L60.2818 60.0049L60.1677 60.7589C60.0826 61.3214 60.3626 61.8793 60.864 62.147L61.5368 62.5065L60.7841 62.631Z" fill="white"/>
<path d="M53.901 8.26566L55.9516 9.39591L55.5713 11.7065C55.4776 12.2753 55.7564 12.8401 56.265 13.1118C56.4647 13.2184 56.6824 13.2705 56.8987 13.2705C57.2328 13.2705 57.5634 13.1461 57.8189 12.9067L59.5275 11.3056L61.6074 12.3814C62.1197 12.6464 62.7428 12.5556 63.1583 12.1559C63.5738 11.7561 63.6884 11.1369 63.4435 10.6148L62.4488 8.49493L64.1147 6.84939C64.5248 6.44401 64.6312 5.82331 64.3794 5.3046C64.1275 4.78589 63.5739 4.48538 63.0018 4.5573L60.6784 4.84823L59.6281 2.75534C59.3694 2.23978 58.8113 1.94624 58.2407 2.02622C57.6695 2.10538 57.2128 2.53919 57.1041 3.10548L56.663 5.40495L54.3483 5.75714C53.7782 5.84382 53.327 6.28351 53.2258 6.8513C53.1245 7.41896 53.3961 7.98743 53.901 8.26566ZM57.4633 7.35743C58.026 7.27226 58.476 6.83954 58.583 6.28077L58.7267 5.53169L59.0689 6.21364C59.324 6.72155 59.8735 7.01632 60.4386 6.94481L61.1955 6.85021L60.6527 7.38628C60.2484 7.78591 60.1389 8.40005 60.3803 8.91507L60.7045 9.60564L60.0273 9.25536C59.5221 8.99355 58.9036 9.07927 58.4888 9.46851L57.9323 9.99009L58.0563 9.23732C58.1487 8.67622 57.8762 8.11485 57.3781 7.84032L56.7101 7.47214L57.4633 7.35743Z" fill="white"/>
<path d="M15.5065 34.6851C15.3804 34.1225 14.9104 33.7031 14.3371 33.6417L12.0089 33.3921L11.4665 31.114C11.3329 30.5531 10.8574 30.1399 10.2833 30.0861C9.70912 30.0319 9.16525 30.3496 8.92969 30.8757L7.97279 33.0129L5.63887 32.8247C5.06355 32.778 4.52433 33.1029 4.2956 33.6321C4.06687 34.1615 4.20058 34.777 4.62824 35.1638L6.36512 36.7341L5.46496 38.8958C5.24334 39.4283 5.38525 40.0419 5.81797 40.4229C6.25068 40.804 6.87754 40.867 7.37738 40.5796L9.40779 39.4131L11.1853 40.9372C11.4353 41.1515 11.7472 41.2613 12.0612 41.2613C12.2969 41.2613 12.5339 41.1995 12.7466 41.0735C13.2428 40.7798 13.4964 40.2032 13.3778 39.6389L12.8958 37.3475L14.8946 36.1278C15.3866 35.8277 15.6327 35.2479 15.5065 34.6851ZM11.4021 35.8565C10.9168 36.1527 10.6692 36.7255 10.7862 37.2821L10.9431 38.0285L10.3643 37.5322C10.1149 37.3182 9.80223 37.2084 9.4875 37.2084C9.2574 37.2084 9.02621 37.2672 8.81799 37.387L8.15654 37.7669L8.44994 37.0627C8.66855 36.5375 8.53197 35.9286 8.11019 35.5474L7.54445 35.036L8.30529 35.0973C8.87104 35.1418 9.40861 34.8246 9.6409 34.306L9.95262 33.6097L10.1293 34.3515C10.2609 34.9051 10.7293 35.3175 11.2946 35.378L12.053 35.4594L11.4021 35.8565Z" fill="white"/>
</g>
<defs>
<clipPath id="clip0">
<rect width="70" height="70" fill="white"/>
</clipPath>
</defs>
</svg>
