<svg width="70" height="70" viewBox="0 0 70 70" fill="none" xmlns="http://www.w3.org/2000/svg">
<g clip-path="url(#clip0)">
<path d="M66.2377 63.0543H65.3695L49.2645 18.7786C51.3893 18.0251 52.6622 15.8506 52.2795 13.6292C51.8974 11.4078 49.9705 9.7844 47.7163 9.7844C45.4621 9.7844 43.5352 11.4078 43.1531 13.6292C42.7704 15.8506 44.0434 18.0251 46.1681 18.7786L40.2896 34.9497L40.2816 34.9644V34.974L39.124 38.1422L36.8551 32.7616C36.8489 32.7464 36.8365 32.7373 36.8297 32.7232L31.7741 20.7394L31.4271 19.9226L29.1938 14.6172L30.6075 15.6437C31.0127 15.9388 31.5627 15.9388 31.968 15.6443C32.3739 15.3492 32.544 14.8264 32.3886 14.3493L30.9658 9.97263L34.6891 7.26736C35.0955 6.97174 35.2651 6.44832 35.1085 5.97069C34.9525 5.49306 34.506 5.17087 34.0035 5.17313H29.4024L27.9796 0.796431C27.8231 0.321059 27.3799 0 26.8797 0C26.3794 0 25.9363 0.321059 25.7797 0.796431L24.3547 5.17313H19.7536C19.2517 5.17313 18.8074 5.49588 18.652 5.97295C18.4971 6.45002 18.6672 6.9723 19.0725 7.26736L22.7958 9.97263L21.3731 14.3493C21.2176 14.8264 21.3877 15.3492 21.7936 15.6443C22.1994 15.9388 22.7489 15.9388 23.1547 15.6437L24.5633 14.6172L18.7418 28.4149L15.1531 36.9117V36.9173L4.11611 63.0543H3.72609C1.81273 63.065 0.263959 64.6138 0.25322 66.5271C0.25322 68.445 1.80821 70 3.72609 70H66.2377C68.1511 69.9893 69.6998 68.4405 69.7106 66.5271C69.7106 64.6093 68.1556 63.0543 66.2377 63.0543ZM50.031 63.0543H49.641L47.3868 57.7144L62.5404 62.0493L62.9062 63.0543H50.031ZM35.2063 34.8174L37.824 41.0187C36.2537 41.2567 34.7225 40.3987 34.1046 38.9358C33.4874 37.4724 33.9407 35.7766 35.2063 34.8174ZM42.1187 36.6929L54.6208 40.2607L56.4652 45.3321L40.6287 40.8107L42.1187 36.6929ZM44.404 30.4091L51.7985 32.522L53.6384 37.5775L42.9117 34.5122L44.404 30.4091ZM44.3712 50.5725L59.9867 55.0317L61.562 59.3615L46.2303 54.9752L44.3712 50.5725ZM43.2136 47.835L41.3556 43.4363L57.4397 48.0193L59.0127 52.3451L43.2136 47.835ZM45.1959 28.2284L47.7158 21.2939L50.8218 29.8303L45.1959 28.2284ZM45.4005 14.4341C45.4005 13.1555 46.4372 12.1189 47.7158 12.1189C48.9943 12.1189 50.031 13.1555 50.031 14.4341C50.031 15.7127 48.9943 16.7494 47.7158 16.7494C46.4372 16.7494 45.4005 15.7127 45.4005 14.4341ZM32.4106 28.2097C32.1167 28.2883 31.8137 28.3273 31.509 28.3256C29.9473 28.3228 28.5799 27.2776 28.1667 25.7718C27.7535 24.2654 28.3962 22.6692 29.7381 21.8693L32.4106 28.2097ZM25.1964 7.48837C25.6977 7.48837 26.1426 7.16562 26.2975 6.68855L26.8785 4.90011L27.4574 6.68855C27.6128 7.16618 28.0582 7.4895 28.5607 7.48837H30.4418L28.9208 8.59399C28.5144 8.88848 28.3442 9.41077 28.4991 9.8884L29.0779 11.6768L27.5568 10.5712C27.151 10.2762 26.6016 10.2762 26.1957 10.5712L24.6747 11.6768L25.2535 9.8884C25.4078 9.41077 25.2376 8.88848 24.8318 8.59399L23.3152 7.48837H25.1964ZM21.0904 32.9561C21.0904 34.7745 19.6881 36.2854 17.8747 36.4199L20.2799 30.7239C20.8038 31.3496 21.091 32.1399 21.0904 32.9561ZM12.8169 48.4161C15.3967 49.4437 16.8827 52.1586 16.3588 54.8853C15.8353 57.6121 13.4483 59.5831 10.6718 59.5814C9.85731 59.5842 9.05183 59.4129 8.3091 59.0789L12.8169 48.4161ZM7.41205 61.202C8.43797 61.6592 9.54868 61.8961 10.6718 61.8966C14.5477 61.8938 17.8793 59.1462 18.6197 55.3415C19.3602 51.5368 17.3027 47.7401 13.7106 46.284L16.9161 38.6899C17.1484 38.7221 17.383 38.7402 17.6176 38.7442C20.073 38.7476 22.2627 37.1988 23.0773 34.8824C23.8923 32.5666 23.1553 29.988 21.2385 28.4528L26.8785 15.0949L28.8467 19.7418C26.1601 21.1193 24.9906 24.3355 26.1652 27.1171C27.3392 29.8981 30.4599 31.3033 33.3206 30.3384L34.3002 32.6537C31.842 34.1357 30.8466 37.1982 31.9624 39.8419C33.0787 42.4861 35.9683 43.9083 38.7442 43.1802L47.1279 63.0543H6.62919L7.41205 61.202ZM2.56846 66.5271C2.5679 66.2151 2.69678 65.9167 2.924 65.703C3.13428 65.4865 3.42425 65.3661 3.72609 65.3695H50.031C50.6703 65.3695 51.1886 65.8878 51.1886 66.5271C51.1892 66.8391 51.0609 67.137 50.8342 67.3513C50.6234 67.5672 50.3328 67.6876 50.031 67.6848H3.72609C3.0868 67.6848 2.56846 67.1664 2.56846 66.5271ZM67.0409 67.3513C66.8301 67.5672 66.5396 67.6876 66.2377 67.6848H53.3072C53.3428 67.5853 53.3614 67.4784 53.388 67.3756C53.4044 67.3072 53.4276 67.2416 53.44 67.1721C53.4813 66.9595 53.5027 66.7436 53.5039 66.5271C53.5027 66.3084 53.4807 66.0902 53.4377 65.8754C53.4253 65.807 53.4033 65.7448 53.3869 65.6787C53.3603 65.5758 53.3405 65.469 53.306 65.3695H66.2377C66.877 65.3695 67.3953 65.8878 67.3953 66.5271C67.3959 66.8391 67.2676 67.137 67.0409 67.3513Z" fill="white"/>
<path d="M30.9613 49.332L34.6846 46.6267C35.0899 46.3317 35.26 45.8094 35.1051 45.3323C34.9497 44.8553 34.5054 44.5325 34.0035 44.5325H29.4024L27.9797 40.1558C27.8231 39.6804 27.3799 39.3594 26.8797 39.3594C26.3794 39.3594 25.9363 39.6804 25.7797 40.1558L24.3547 44.5325H19.7536C19.2517 44.5325 18.8074 44.8553 18.652 45.3323C18.4971 45.8094 18.6672 46.3317 19.0725 46.6267L22.7958 49.332L21.3731 53.7087C21.2176 54.1858 21.3878 54.7086 21.7936 55.0037C22.1995 55.2982 22.7489 55.2982 23.1547 55.0031L26.8786 52.2979L30.6024 55.0031C31.0082 55.2982 31.5577 55.2982 31.9635 55.0037C32.3693 54.7086 32.5395 54.1858 32.384 53.7087L30.9613 49.332ZM28.4991 49.2478L29.0779 51.0362L27.5568 49.9306C27.151 49.6355 26.6016 49.6355 26.1957 49.9306L24.6747 51.0362L25.2535 49.2478C25.4078 48.7702 25.2376 48.2479 24.8318 47.9534L23.3152 46.8478H25.1964C25.6978 46.8478 26.1426 46.525 26.2975 46.0479L26.8763 44.2595L27.4551 46.0479C27.61 46.525 28.0543 46.8478 28.5562 46.8478H30.4373L28.9157 47.9534C28.5115 48.249 28.3437 48.7713 28.4991 49.2478Z" fill="white"/>
<path d="M38.4548 52.6357C35.8976 52.6357 33.8243 54.7091 33.8243 57.2662C33.8243 59.8234 35.8976 61.8967 38.4548 61.8967C41.012 61.8967 43.0853 59.8234 43.0853 57.2662C43.0853 54.7091 41.012 52.6357 38.4548 52.6357ZM38.4548 59.5815C37.1762 59.5815 36.1395 58.5448 36.1395 57.2662C36.1395 55.9876 37.1762 54.951 38.4548 54.951C39.7334 54.951 40.77 55.9876 40.77 57.2662C40.77 58.5448 39.7334 59.5815 38.4548 59.5815Z" fill="white"/>
</g>
<defs>
<clipPath id="clip0">
<rect width="70" height="70" fill="white"/>
</clipPath>
</defs>
</svg>
