<svg xmlns="http://www.w3.org/2000/svg" id="place" xmlns:xlink="http://www.w3.org/1999/xlink" width="24" height="24"><defs><path id="c" d="M371.995 2036.99a5.063 5.063 0 0 1-5.058-5.057 5.063 5.063 0 0 1 5.058-5.058 5.063 5.063 0 0 1 5.058 5.058 5.063 5.063 0 0 1-5.058 5.057zm8.49 3.525a11.954 11.954 0 0 0-4.56-2.86 6.935 6.935 0 0 0 3.013-5.718A6.945 6.945 0 0 0 372 2025a6.945 6.945 0 0 0-6.938 6.938 6.935 6.935 0 0 0 3.013 5.716 11.954 11.954 0 0 0-4.56 2.86A11.922 11.922 0 0 0 360 2049h1.875c0-5.583 4.542-10.125 10.125-10.125s10.125 4.542 10.125 10.125H384c0-3.205-1.248-6.219-3.515-8.485z"/></defs><use xlink:href="#c" transform="translate(-360 -2025)"/></svg>