<svg width="30" height="30" viewBox="0 0 30 30" fill="none" xmlns="http://www.w3.org/2000/svg">
<path d="M14.9792 0C8.91655 0 3.98438 4.93217 3.98438 10.9948C3.98438 13.7798 5.73921 17.7148 9.20036 22.6904C11.7302 26.3276 14.2184 29.1422 14.3232 29.2603L14.9792 30L15.6354 29.2603C15.74 29.1422 18.2281 26.3276 20.7582 22.6904C24.2191 17.7148 25.9742 13.7798 25.9742 10.9948C25.9742 4.93217 21.0418 0 14.9792 0ZM19.3279 21.6747C17.618 24.1347 15.8897 26.2518 14.9792 27.3319C14.071 26.2548 12.3491 24.1457 10.6403 21.6888C7.4334 17.0787 5.7383 13.3807 5.7383 10.9948C5.7383 5.89943 9.8838 1.75392 14.9792 1.75392C20.0748 1.75392 24.22 5.89943 24.22 10.9948C24.22 13.3781 22.5284 17.0712 19.3279 21.6747Z" fill="#FFD858"/>
<path d="M14.9793 4.0636C11.4012 4.0636 8.49023 6.97452 8.49023 10.5526C8.49023 14.1307 11.4012 17.0419 14.9793 17.0419C18.5576 17.0419 21.4685 14.1307 21.4685 10.5526C21.4685 6.97452 18.5576 4.0636 14.9793 4.0636ZM14.9793 15.288C12.3684 15.288 10.2442 13.1637 10.2442 10.5526C10.2442 7.94177 12.3684 5.81752 14.9793 5.81752C17.5903 5.81752 19.7146 7.94177 19.7146 10.5526C19.7146 13.1637 17.5903 15.288 14.9793 15.288Z" fill="#FFD858"/>
</svg>
