<svg width="17" height="17" viewBox="0 0 17 17" fill="none" xmlns="http://www.w3.org/2000/svg">
<path d="M0.604439 9.10498C0.269781 9.10498 0.00378418 8.83033 0.00378418 8.49568C0.00378418 8.16102 0.269781 7.89502 0.604439 7.89502H7.88961V0.609305C7.89015 0.274647 8.1648 0 8.49946 0C8.83412 0 9.10011 0.274647 9.10011 0.609305V7.89502H16.3853C16.7199 7.89502 16.9946 8.16102 16.9946 8.49568C16.9946 8.83033 16.7199 9.10498 16.3853 9.10498H9.10011V16.3907C9.10011 16.7254 8.83412 17 8.49946 17C8.1648 17 7.89015 16.7254 7.89015 16.3907V9.10498H0.604439Z" fill="#1E201D"/>
</svg>
