<svg width="32" height="32" viewBox="0 0 32 32" fill="none" xmlns="http://www.w3.org/2000/svg">
<path d="M6.74871 3.39915C7.78816 3.26453 8.82651 3.34453 9.84278 3.6375C11.301 1.71364 13.573 0.577637 16 0.577637C18.4271 0.577637 20.6991 1.71419 22.1573 3.6375C23.1735 3.34564 24.2119 3.26508 25.2513 3.39915C29.066 3.8935 31.9669 7.15805 31.9995 10.9931C32.0298 14.5809 29.6232 17.6916 26.1468 18.5567C25.3214 18.7619 24.7123 19.4687 24.6317 20.3156L24.1694 25.1724H24.17L23.9057 27.947C23.7931 29.131 22.2946 29.9437 21.6646 30.235C21.5746 30.2764 21.5024 30.3073 21.4544 30.3271C19.7209 31.0571 17.8604 31.4218 16 31.4218C14.1402 31.4218 12.2814 31.0571 10.5506 30.3283C10.1633 30.1683 8.22513 29.2998 8.09602 27.947L7.83175 25.1724H7.8323L7.36996 20.3156C7.2894 19.4687 6.6803 18.7619 5.85492 18.5567C2.37685 17.691 -0.030323 14.5809 2.28882e-05 10.9931C0.0331268 7.15805 2.93409 3.8935 6.74871 3.39915ZM10.9749 29.3103C14.1688 30.6554 17.8323 30.656 21.0284 29.3092C21.7164 29.0223 22.7575 28.358 22.8066 27.8427L22.8751 27.1266C20.693 28.1815 18.3857 28.7156 16.0006 28.7156C13.6155 28.7156 11.3082 28.1815 9.12609 27.1266L9.19451 27.8427C9.24251 28.358 10.2842 29.0229 10.9749 29.3103ZM6.11975 17.4852C7.39809 17.8036 8.34154 18.8993 8.46678 20.2107L9.00085 25.8174C11.21 27.0041 13.5625 27.6116 16 27.6116C18.4375 27.6116 20.7901 27.0041 22.9992 25.8174L23.5333 20.2107C23.6585 18.8987 24.602 17.8036 25.8803 17.4852C28.8596 16.7437 30.9225 14.0778 30.8966 11.0025C30.8684 7.71529 28.3807 4.9175 25.1095 4.49377C24.8315 4.45791 24.5529 4.43915 24.2748 4.43915C23.5504 4.43915 22.8287 4.56164 22.1214 4.80495L21.722 4.94233L21.4847 4.59253C20.2494 2.77019 18.1992 1.68108 16 1.68108C13.8009 1.68108 11.7506 2.77019 10.5153 4.59308L10.2781 4.94288L9.87864 4.8055C8.89989 4.46895 7.89464 4.36412 6.8905 4.49433C3.61988 4.9175 1.13161 7.71529 1.10347 11.0025C1.07754 14.0783 3.14044 16.7443 6.11975 17.4852Z" fill="#383838"/>
<path d="M21.5856 19.3407C21.8879 19.3782 22.1025 19.654 22.0645 19.9564L21.5127 24.3702C21.478 24.6493 21.2402 24.8535 20.966 24.8535C20.9428 24.8535 20.9202 24.8518 20.897 24.8491C20.5947 24.8116 20.3801 24.5357 20.4181 24.2333L20.9699 19.8196C21.0079 19.5167 21.2865 19.3059 21.5856 19.3407Z" fill="#383838"/>
<path d="M17.6553 20.4397C17.9599 20.4397 18.207 20.6863 18.207 20.9914V25.4052C18.207 25.7103 17.9599 25.9569 17.6553 25.9569C17.3508 25.9569 17.1036 25.7103 17.1036 25.4052V20.9914C17.1036 20.6863 17.3508 20.4397 17.6553 20.4397Z" fill="#383838"/>
<path d="M10.4145 19.3407C10.7141 19.3059 10.9927 19.5167 11.0302 19.8196L11.5819 24.2333C11.6194 24.5357 11.4054 24.8116 11.103 24.8491C11.0798 24.8518 11.0567 24.8535 11.0341 24.8535C10.7598 24.8535 10.5221 24.6493 10.4873 24.3702L9.93557 19.9564C9.8975 19.654 10.1121 19.3782 10.4145 19.3407Z" fill="#383838"/>
<path d="M14.3448 20.4397C14.6493 20.4397 14.8965 20.6863 14.8965 20.9914V25.4052C14.8965 25.7103 14.6493 25.9569 14.3448 25.9569C14.0402 25.9569 13.793 25.7103 13.793 25.4052V20.9914C13.793 20.6863 14.0402 20.4397 14.3448 20.4397Z" fill="#383838"/>
<path d="M23.1663 6.09479C27.7721 6.05562 28.6687 9.80072 28.6764 9.83879C28.7421 10.1362 28.5534 10.4302 28.256 10.4953C28.2163 10.5042 28.176 10.508 28.1374 10.508C27.8841 10.508 27.6552 10.3326 27.5989 10.0744C27.5923 10.0451 26.9308 7.13424 23.1779 7.19768C22.8828 7.17727 22.6234 6.95603 22.6201 6.65203C22.6168 6.34803 22.8618 6.0981 23.1663 6.09479Z" fill="#383838"/>
<path d="M19.0958 4.0028C19.3369 4.18928 19.3816 4.53576 19.1951 4.77686C19.0092 5.01797 18.6621 5.06155 18.421 4.87673C18.3984 4.85852 16.0916 3.12114 13.557 4.89162C13.461 4.95893 13.3507 4.99149 13.2414 4.99149C13.0671 4.99149 12.896 4.90928 12.7885 4.75535C12.6141 4.50597 12.6748 4.16169 12.9247 3.98735C15.4798 2.20362 18.0784 3.21824 19.0958 4.0028Z" fill="#383838"/>
</svg>
