<svg width="37" height="14" viewBox="0 0 37 14" fill="none" xmlns="http://www.w3.org/2000/svg">
<path d="M19.4704 0.442247C24.3125 1.41723 28.6533 3.9557 31.7595 7.62891L35.5161 5.2987C35.6753 5.19992 35.8616 5.14836 36.0515 5.15055C36.2414 5.15275 36.4264 5.20859 36.583 5.31102C36.7396 5.41345 36.8609 5.55786 36.9314 5.72599C37.0019 5.89412 37.0185 6.07842 36.9792 6.25556L35.4211 13.2741C35.395 13.3917 35.3449 13.5033 35.2735 13.6024C35.2022 13.7016 35.1111 13.7863 35.0054 13.8519C34.8997 13.9175 34.7815 13.9625 34.6575 13.9845C34.5336 14.0065 34.4063 14.005 34.2829 13.9801L26.9215 12.4945C26.7357 12.4571 26.5657 12.3679 26.433 12.2383C26.3004 12.1087 26.211 11.9446 26.1763 11.7665C26.1415 11.5885 26.1629 11.4047 26.2377 11.2383C26.3125 11.0718 26.4375 10.9303 26.5967 10.8316L30.141 8.63306C28.4382 6.66245 26.3299 5.04542 23.9463 3.88174C21.5626 2.71807 18.9541 2.03244 16.2818 1.86715C13.6094 1.70187 10.9299 2.06044 8.40852 2.92074C5.88715 3.78104 3.57743 5.12482 1.62187 6.86916C1.52999 6.9525 1.4217 7.01767 1.30326 7.06089C1.18481 7.10411 1.05856 7.12452 0.931793 7.12096C0.805027 7.1174 0.680252 7.08992 0.564686 7.04013C0.44912 6.99033 0.345043 6.9192 0.258472 6.83083C0.171902 6.74247 0.104553 6.63863 0.0603142 6.52531C0.0160751 6.41199 -0.00418472 6.29144 0.000717163 6.17062C0.00561905 6.04979 0.0355797 5.93109 0.088871 5.82137C0.142162 5.71165 0.217724 5.61308 0.311195 5.53135C2.84131 3.27844 5.90339 1.63973 9.23834 0.753899C12.5733 -0.131936 16.083 -0.238835 19.4704 0.442247ZM32.1176 9.59114L32.1141 9.59404C32.1075 9.59861 32.1003 9.60166 32.0936 9.60609L29.5868 11.161L32.1176 9.59114Z" fill="#F4CC47"/>
</svg>
