<svg width="70" height="70" viewBox="0 0 70 70" fill="none" xmlns="http://www.w3.org/2000/svg">
<g clip-path="url(#clip0)">
<path d="M69.5956 48.6529L66.2585 45.3429C65.7221 44.8109 64.8564 44.8146 64.3246 45.3508C63.7926 45.887 63.7963 46.7529 64.3325 47.2847L67.6696 50.5947C67.9362 50.8592 68.2844 50.9913 68.6325 50.9913C68.9842 50.9913 69.336 50.8564 69.6033 50.5867C70.1354 50.0505 70.1319 49.1847 69.5956 48.6529Z" fill="white"/>
<path d="M62.8581 41.9567C62.3241 41.4226 61.4585 41.4226 60.9242 41.9567L60.9219 41.959C60.3879 42.493 60.3891 43.3578 60.9231 43.8918C61.1897 44.1585 61.5396 44.2918 61.8893 44.2918C62.2398 44.2918 62.5907 44.158 62.8579 43.8907C63.392 43.3567 63.392 42.4908 62.8581 41.9567Z" fill="white"/>
<path d="M51.2003 48.2615L64.4658 34.9961C66.4749 32.9869 66.4749 29.7177 64.4657 27.7085C63.7572 27 62.8919 26.5425 61.9806 26.3338C62.2931 25.6619 62.4585 24.9246 62.4585 24.1616C62.4585 22.7851 61.9224 21.4911 60.9493 20.5179C60.186 19.7545 59.225 19.2614 58.182 19.0838C58.7692 17.2947 58.3541 15.2457 56.934 13.8258C56.1532 13.0451 55.1821 12.5693 54.1686 12.3954C54.3384 11.8801 54.4279 11.336 54.4279 10.7776C54.4279 9.40115 53.8919 8.10711 52.9187 7.13394C51.9454 6.16078 50.6514 5.62471 49.275 5.62471C48.401 5.62471 47.5606 5.84154 46.8139 6.24869L46.682 6.10691C44.9673 4.26422 42.5401 3.20752 40.0233 3.20752H29.2854C28.5303 3.20752 27.9179 3.81988 27.9179 4.57498V6.36818C27.9179 7.08582 28.0393 7.78445 28.2715 8.44139C27.6529 8.18449 26.9837 8.04955 26.2938 8.04955C24.9173 8.04955 23.6233 8.58562 22.65 9.55879C21.2292 10.9796 20.8145 13.0301 21.4031 14.8197C20.3888 14.9932 19.4163 15.4693 18.6348 16.2506C17.6617 17.2239 17.1256 18.518 17.1256 19.8943C17.1256 20.4516 17.2149 20.9949 17.384 21.5091C16.3422 21.6872 15.3822 22.18 14.6195 22.9427C13.0504 24.5119 12.7068 26.8497 13.5888 28.7555C12.6549 28.9689 11.7971 29.4392 11.1029 30.1333C9.09378 32.1424 9.09378 35.4116 11.1029 37.4208L13.8309 40.1488L0.400518 53.5789C-0.133506 54.113 -0.133506 54.9788 0.400518 55.513C0.667529 55.7798 1.01753 55.9135 1.36739 55.9135C1.71726 55.9135 2.06726 55.78 2.33427 55.513L15.8943 41.9529C16.662 42.391 17.5332 42.6253 18.4411 42.6253C19.8175 42.6253 21.1115 42.0892 22.0848 41.1159C23.1422 40.0587 23.6423 38.6523 23.5867 37.2643C23.656 37.2672 23.7253 37.2692 23.7946 37.2692C25.1139 37.2691 26.434 36.7668 27.4383 35.7624C28.4115 34.7891 28.9475 33.4951 28.9475 32.1187C28.9475 32.0492 28.9452 31.98 28.9425 31.9108C29.011 31.9135 29.0795 31.9157 29.1481 31.9157C30.4676 31.9157 31.7873 31.4134 32.7918 30.4089C33.765 29.4356 34.301 28.1416 34.301 26.7653C34.301 26.6957 34.2987 26.6265 34.296 26.5573C34.3645 26.56 34.433 26.5622 34.5016 26.5622C35.8212 26.5622 37.1408 26.0599 38.1453 25.0554C40.0331 23.1676 40.1467 20.1676 38.4871 18.1454L47.5644 9.06811C48.0212 8.61119 48.6282 8.35976 49.2742 8.35976C49.9202 8.35976 50.5274 8.61119 50.9841 9.06811C51.4409 9.52488 51.6923 10.1319 51.6923 10.7779C51.6923 11.4238 51.4409 12.0311 50.984 12.4877L49.6457 13.8261L44.7897 18.682C44.2557 19.2161 44.2557 20.0819 44.7897 20.6161C45.0567 20.8829 45.4067 21.0166 45.7565 21.0166C46.1064 21.0166 46.4564 20.8831 46.7234 20.6161L51.5794 15.7601C52.5221 14.8173 54.0562 14.8171 54.9991 15.7599C55.942 16.7029 55.942 18.2369 54.9991 19.1798L53.6607 20.5183L50.1432 24.0358C49.6091 24.5698 49.6091 25.4357 50.1432 25.9698C50.4102 26.2367 50.7602 26.3704 51.11 26.3704C51.4599 26.3704 51.8099 26.2368 52.0769 25.9698L55.5944 22.4523C56.0512 21.9954 56.6584 21.744 57.3042 21.744C57.9502 21.744 58.5574 21.9954 59.0142 22.4523C59.4709 22.9091 59.7224 23.5161 59.7224 24.1621C59.7224 24.808 59.4709 25.4153 59.014 25.8719L57.1769 27.709L55.4965 29.3894C54.9625 29.9235 54.9625 30.7893 55.4965 31.3235C55.7635 31.5903 56.1135 31.724 56.4634 31.724C56.8133 31.724 57.1633 31.5905 57.4303 31.3235L59.1119 29.6418C60.0549 28.7005 61.588 28.7006 62.5304 29.643C63.4734 30.5859 63.4734 32.12 62.5304 33.0629L49.2649 46.3283C45.9339 49.6595 41.5068 51.5879 36.7991 51.7588C36.4531 51.7714 36.1244 51.9148 35.88 52.1603L23.6256 64.4601C23.0926 64.9951 23.0941 65.8609 23.6292 66.394C23.8959 66.6598 24.2451 66.7928 24.5943 66.7928C24.945 66.7928 25.2959 66.6587 25.5629 66.3904L34.5764 57.3438C36.8659 58.8125 39.5584 59.5109 42.2962 59.3299L49.3506 66.3844C49.6176 66.6513 49.9676 66.785 50.3175 66.785C50.6675 66.785 51.0174 66.6514 51.2844 66.3844C51.8184 65.8504 51.8184 64.9846 51.2844 64.4504L43.784 56.9492C43.5 56.6654 43.1054 56.5203 42.7053 56.5531L42.2717 56.5887C40.2706 56.7527 38.2925 56.3144 36.5655 55.3466L37.4443 54.4646C42.6418 54.144 47.5079 51.954 51.2003 48.2615ZM20.151 39.1822C19.6943 39.6391 19.087 39.8905 18.4412 39.8905C17.7952 39.8905 17.1881 39.6391 16.7314 39.1822L13.0365 35.4874C12.0937 34.5445 12.0937 33.0104 13.0365 32.0675C13.4933 31.6106 14.1006 31.3591 14.7464 31.3591C15.3923 31.3591 15.9996 31.6106 16.4562 32.0675L20.1512 35.7623C21.0939 36.7051 21.0939 38.2392 20.151 39.1822ZM25.5048 33.8284C24.5619 34.7712 23.0275 34.7712 22.0849 33.8284L18.39 30.1335L16.5527 28.2962C15.6099 27.3534 15.6099 25.8193 16.5527 24.8765C17.0095 24.4196 17.6168 24.1681 18.2625 24.1681C18.9085 24.1681 19.5157 24.4196 19.9724 24.8765L25.5044 30.4085C25.5044 30.4085 25.5044 30.4085 25.5045 30.4085C25.9615 30.8654 26.2129 31.4726 26.2129 32.1185C26.2129 32.7643 25.9615 33.3716 25.5048 33.8284ZM30.8583 28.4748C29.9154 29.4175 28.3811 29.4176 27.4384 28.4748L20.5679 21.6043C20.1111 21.1475 19.8597 20.5404 19.8597 19.8945C19.8597 19.2486 20.1111 18.6413 20.568 18.1846C21.0394 17.7132 21.6588 17.4775 22.2778 17.4775C22.8966 17.4775 23.5153 17.713 23.9866 18.1836L27.118 21.315L30.858 25.055H30.8582C31.3148 25.5118 31.5662 26.1188 31.5662 26.7648C31.5665 27.4108 31.3151 28.0181 30.8583 28.4748ZM36.2119 23.1211C35.2691 24.064 33.735 24.064 32.7922 23.1211L25.9217 16.2506C25.921 16.2499 25.9202 16.2493 25.9193 16.2484L24.5832 14.9123C23.6404 13.9693 23.6404 12.4354 24.5832 11.4924C25.0546 11.0209 25.6739 10.7852 26.2931 10.7852C26.9123 10.7852 27.5317 11.0209 28.0029 11.4924L36.2117 19.7011C36.6686 20.1579 36.92 20.7651 36.92 21.4109C36.9201 22.0571 36.6689 22.6645 36.2119 23.1211ZM36.5715 16.1933L32.8156 12.4374C33.2415 12.5283 33.6794 12.5766 34.1251 12.5764C34.1351 12.5764 34.1452 12.5764 34.1553 12.5764L37.9079 12.5588C38.663 12.5553 39.2725 11.9402 39.269 11.1849C39.2654 10.4319 38.6539 9.82389 37.9016 9.82389C37.8995 9.82389 37.8973 9.82389 37.8951 9.82389L34.1424 9.84152C34.1367 9.84152 34.1312 9.84152 34.1255 9.84152C33.2009 9.84152 32.3312 9.48264 31.6755 8.83008C31.0157 8.17328 30.6524 7.2991 30.6524 6.36805V5.9423H40.0228C41.7831 5.9423 43.4805 6.68127 44.6798 7.96998L44.7354 8.02973L36.5715 16.1933Z" fill="white"/>
</g>
<defs>
<clipPath id="clip0">
<rect width="70" height="70" fill="white"/>
</clipPath>
</defs>
</svg>
