<svg width="32" height="32" viewBox="0 0 32 32" fill="none" xmlns="http://www.w3.org/2000/svg">
<g clip-path="url(#clip0)">
<path d="M6.06105 25.6698V22.7567C6.06105 22.5302 6.24471 22.3465 6.47118 22.3465H11.4858C9.81977 21.7162 8.29161 20.734 6.99435 19.4368C6.91741 19.3599 6.87427 19.2556 6.87427 19.1467C6.87427 19.038 6.91749 18.9336 6.99435 18.8567L10.3802 15.4709C10.5032 15.3478 10.6906 15.3158 10.8476 15.3911C12.3181 16.0967 13.9495 16.4943 15.59 16.5514V15.6733C14.2712 15.4748 13.2568 14.3341 13.2568 12.9609C13.2568 11.5876 14.2712 10.4469 15.59 10.2484V9.04579L14.0553 7.51107C13.9784 7.43413 13.9352 7.32987 13.9352 7.22102V0.410164C13.9352 0.244962 14.0343 0.0958372 14.1867 0.0319382C14.339 -0.0319607 14.5148 0.00175233 14.6328 0.117574L16.2877 1.74302C16.3662 1.82012 16.4104 1.92561 16.4104 2.03561V10.2483C17.7291 10.447 18.7433 11.5876 18.7433 12.9608C18.7433 14.334 17.729 15.4746 16.4104 15.6732V16.5513C18.0508 16.4942 19.682 16.0966 21.1525 15.3911C21.3095 15.3158 21.4968 15.3478 21.6199 15.4708L25.0057 18.8566C25.0827 18.9336 25.1258 19.0378 25.1258 19.1467C25.1258 19.2555 25.0826 19.3598 25.0057 19.4367C23.7085 20.734 22.1803 21.7162 20.5143 22.3465H25.529C25.7555 22.3465 25.9391 22.5301 25.9391 22.7566V25.6697C26.8485 25.9579 27.5095 26.8097 27.5095 27.8132V29.7518C27.5095 30.9914 26.501 32 25.2613 32H6.73884C5.49917 32 4.49065 30.9914 4.49065 29.7518V27.8132C4.49065 26.8098 5.15162 25.9579 6.06105 25.6698ZM15.5901 2.2077L14.7555 1.38792V7.05106L15.5901 7.88569V2.2077ZM23.3006 25.5651H25.1188V23.7468L23.3006 25.5651ZM22.1405 25.5651L24.5388 23.1667H21.7393L19.341 25.5651H22.1405ZM18.1809 25.5651L20.5792 23.1667H17.7795L15.3812 25.5651H18.1809ZM14.2211 25.5651L16.6194 23.1667H13.8198L11.4215 25.5651H14.2211ZM10.2614 25.5651L12.6597 23.1667H9.86004L7.46174 25.5651H10.2614ZM6.88132 24.9855L8.70002 23.1667H6.88132V24.9855ZM17.923 12.9608C17.923 11.9004 17.0604 11.0378 16.0001 11.0378C14.9398 11.0378 14.0771 11.9005 14.0771 12.9608C14.0771 14.0211 14.9398 14.8837 16.0001 14.8837C17.0604 14.8837 17.923 14.0211 17.923 12.9608ZM21.2428 16.2537C19.6082 16.9911 17.8021 17.3796 16.0001 17.3796C14.1981 17.3796 12.3921 16.991 10.7574 16.2537L8.78443 18.2267C10.7875 20.1038 13.3341 21.1332 16.0002 21.1332C18.6663 21.1332 21.2129 20.1038 23.2159 18.2268L21.2428 16.2537ZM24.1308 19.1418L23.7962 18.8072C21.6376 20.8389 18.8852 21.9535 16.0002 21.9535C13.1152 21.9535 10.3627 20.8388 8.20417 18.807L7.86933 19.1418C10.083 21.2115 12.9543 22.3465 16.0001 22.3465C19.0458 22.3465 21.9172 21.2115 24.1308 19.1418ZM25.2613 26.3854H6.73884C5.95146 26.3854 5.31091 27.0259 5.31091 27.8133V28.3724H26.6893V27.8133C26.6893 27.0259 26.0487 26.3854 25.2613 26.3854ZM6.73884 31.1798H25.2613C26.0487 31.1798 26.6893 30.5392 26.6893 29.7518V29.1927H5.31091V29.7518C5.31091 30.5392 5.95146 31.1798 6.73884 31.1798Z" fill="#383838"/>
<path d="M15.2007 12.9608C15.2007 13.1873 15.017 13.3709 14.7905 13.3709C14.5641 13.3709 14.3804 13.1873 14.3804 12.9608C14.3804 12.0677 15.1069 11.3412 16 11.3412C16.2265 11.3412 16.4102 11.5248 16.4102 11.7513C16.4102 11.9778 16.2265 12.1615 16 12.1615C15.5592 12.1615 15.2007 12.52 15.2007 12.9608Z" fill="#383838"/>
</g>
<defs>
<clipPath id="clip0">
<rect width="32" height="32" fill="white" transform="matrix(-1 0 0 1 32 0)"/>
</clipPath>
</defs>
</svg>
