<svg width="32" height="32" viewBox="0 0 32 32" fill="none" xmlns="http://www.w3.org/2000/svg">
<g clip-path="url(#clip0)">
<path d="M3.47788 20.8998C3.50881 20.848 3.54138 20.7985 3.57388 20.7547C3.89706 20.303 4.37763 20.0043 4.92588 19.9141C5.4715 19.824 6.02457 19.9525 6.47469 20.2758L12.4374 24.5334H18.6667C18.9606 24.5334 19.2 24.2945 19.2 24.0001C19.2 23.7057 18.9606 23.4668 18.6667 23.4668H15.2C14.1707 23.4668 13.3333 22.6295 13.3333 21.6001C13.3333 21.5942 13.3339 21.5451 13.3344 21.5398C13.3674 20.511 14.2352 19.7089 15.2426 19.7335H22.1808C22.7957 19.7388 23.3946 19.9591 23.8666 20.3526L26.4746 22.5233C26.5963 22.6252 26.6666 22.7751 26.6666 22.9335V29.3335C26.6666 29.6284 26.4277 29.8668 26.1333 29.8668H12.9008C12.0346 29.8657 11.1909 29.5606 10.5242 29.0086L4.05857 23.6663C3.18025 23.0405 2.92531 21.8256 3.47788 20.8998ZM4.70719 22.8208L11.2038 28.1867C11.6806 28.5814 12.2838 28.799 12.9014 28.8H25.6V23.1835L23.1835 21.1717C22.8998 20.9355 22.5408 20.8031 22.176 20.8L15.2256 20.7995C14.7835 20.7989 14.4144 21.1333 14.4 21.6C14.4 22.0411 14.7589 22.4 15.2 22.4H18.6667C19.5488 22.4 20.2667 23.1179 20.2667 24C20.2667 24.8821 19.5488 25.6 18.6667 25.6H12.2667C12.1558 25.6 12.0475 25.5653 11.9558 25.5008L5.85338 21.143C5.63363 20.9851 5.36644 20.9238 5.09869 20.9664C4.8315 21.0106 4.59788 21.1557 4.43738 21.3797C4.42138 21.4016 4.407 21.424 4.39313 21.4469C4.12319 21.8987 4.24856 22.4923 4.70719 22.8208Z" fill="#383838"/>
<path d="M26.1493 21.8667H32V22.9334H26.6827V30.9334H32V32H26.1493C25.8549 32 25.616 31.7616 25.616 31.4667V22.4C25.616 22.1051 25.8549 21.8667 26.1493 21.8667Z" fill="#383838"/>
<path d="M29.3333 26.6667C30.2155 26.6667 30.9333 27.3846 30.9333 28.2668C30.9333 29.1489 30.2155 29.8668 29.3333 29.8668C28.4512 29.8668 27.7333 29.1489 27.7333 28.2668C27.7333 27.3846 28.4512 26.6667 29.3333 26.6667ZM29.3333 28.8001C29.6272 28.8001 29.8667 28.5611 29.8667 28.2668C29.8667 27.9724 29.6272 27.7334 29.3333 27.7334C29.0395 27.7334 28.8 27.9724 28.8 28.2668C28.8 28.5611 29.0395 28.8001 29.3333 28.8001Z" fill="#383838"/>
<path d="M0.533323 16.5333H31.4667C31.7611 16.5333 32 16.7717 32 17.0666C32 19.1248 30.3253 20.8 28.2667 20.8H3.73339C1.67526 20.8 7.43866e-05 19.1248 7.43866e-05 17.0666C1.14441e-05 16.7718 0.238386 16.5333 0.533323 16.5333ZM3.73332 19.7333H28.2667C29.5547 19.7333 30.632 18.8155 30.8795 17.6H1.12057C1.36801 18.8155 2.44532 19.7333 3.73332 19.7333Z" fill="#383838"/>
<path d="M16 2.66675C23.6459 2.66675 29.8667 8.88756 29.8667 16.5334V17.0667C29.8667 17.3617 29.6278 17.6001 29.3334 17.6001H2.66669C2.37175 17.6001 2.13338 17.3617 2.13338 17.0667V16.5334C2.13332 8.8875 8.35363 2.66675 16 2.66675ZM28.8 16.5334C28.8 9.47575 23.0576 3.73337 16 3.73337C8.94238 3.73337 3.20001 9.47575 3.20001 16.5334H28.8Z" fill="#383838"/>
<path d="M24.7723 8.75037C25.1451 9.16955 25.4906 9.61812 25.7994 10.0842L24.9104 10.6736C24.6288 10.249 24.3141 9.83993 23.9749 9.45862L24.7723 8.75037Z" fill="#383838"/>
<path d="M15.9999 4.79993C18.995 4.80155 21.8468 5.93324 24.0292 7.98499L23.2985 8.76205C21.3145 6.89643 18.722 5.86818 15.9993 5.86661L15.9999 4.79993Z" fill="#383838"/>
<path d="M14.4 0H17.6V1.06669H14.4V0Z" fill="#383838"/>
<path d="M15.4665 0.533325H16.5332V3.20001H15.4665V0.533325Z" fill="#383838"/>
</g>
<defs>
<clipPath id="clip0">
<rect width="32" height="32" fill="white" transform="matrix(-1 0 0 1 32 0)"/>
</clipPath>
</defs>
</svg>
